<?xml version="1.0" standalone="no"?>
<!DOCTYPE svg PUBLIC "-//W3C//DTD SVG 20010904//EN"
 "http://www.w3.org/TR/2001/REC-SVG-20010904/DTD/svg10.dtd">
<svg version="1.0" xmlns="http://www.w3.org/2000/svg"
 width="1920.000000pt" height="1920.000000pt" viewBox="0 0 1920.000000 1920.000000"
 preserveAspectRatio="xMidYMid meet">
<metadata>
Created by potrace 1.16, written by Peter Selinger 2001-2019
</metadata>
<g transform="translate(0.000000,1920.000000) scale(0.100000,-0.100000)"
fill="#000000" stroke="none">
<path d="M9385 18589 c-403 -39 -897 -197 -1405 -450 -749 -374 -1450 -889
-2120 -1559 -677 -676 -1196 -1387 -1586 -2170 -421 -847 -637 -1669 -670
-2545 -8 -210 -6 -216 84 -440 221 -549 587 -1332 880 -1880 133 -250 399
-710 497 -859 16 -24 16 -25 -7 -30 -321 -70 -509 -134 -745 -255 -801 -408
-1348 -1189 -1458 -2082 -8 -68 -33 -209 -54 -314 -39 -188 -95 -455 -251
-1210 -45 -214 -101 -484 -125 -600 -266 -1273 -387 -1867 -396 -1955 -39
-355 72 -747 297 -1046 69 -92 208 -229 309 -304 135 -101 339 -198 507 -240
204 -52 -173 -50 6458 -50 6631 0 6254 -2 6458 50 168 42 372 139 507 240 367
274 582 675 611 1140 10 154 -10 284 -131 865 -138 664 -258 1239 -330 1590
-30 143 -91 436 -135 650 -45 215 -108 518 -140 675 -32 157 -63 305 -69 330
-5 25 -17 103 -26 173 -74 605 -336 1147 -760 1573 -231 232 -454 394 -730
529 -224 111 -379 165 -619 219 -59 14 -110 26 -111 28 -2 2 33 62 77 133 97
157 325 552 398 690 29 55 68 127 85 160 252 467 721 1487 892 1942 35 93 17
534 -38 913 -123 860 -463 1743 -996 2590 -89 139 -106 166 -207 310 -456 652
-1031 1269 -1671 1795 -771 634 -1653 1117 -2382 1305 -343 89 -615 116 -898
89z m650 -5249 c1143 -61 2231 -344 3250 -845 127 -63 292 -148 368 -190 l138
-76 -6 -37 c-53 -323 -257 -491 -596 -492 -116 0 -171 -17 -234 -72 -60 -53
-89 -112 -110 -223 -59 -323 -154 -602 -305 -902 -375 -742 -1010 -1306 -1800
-1602 -760 -283 -1658 -263 -2414 53 -721 303 -1315 855 -1665 1549 -150 296
-232 533 -296 851 -32 156 -42 182 -94 239 -65 70 -140 99 -286 107 -137 9
-211 27 -308 77 -76 40 -154 119 -192 192 -24 49 -59 161 -70 222 l-6 37 103
57 c752 421 1564 723 2398 894 383 78 861 141 1225 160 222 12 683 12 900 1z
m-5137 -1519 c57 -153 164 -316 275 -417 150 -137 379 -251 564 -280 24 -3 49
-12 56 -18 8 -6 26 -56 40 -111 143 -542 422 -1078 787 -1507 79 -93 271 -289
375 -383 264 -238 583 -451 924 -616 96 -47 122 -64 119 -77 -3 -9 -45 -218
-94 -464 l-89 -448 -446 0 -446 0 -59 31 c-466 248 -1018 907 -1581 1889 -278
484 -588 1101 -845 1680 -85 192 -198 458 -198 467 0 7 566 340 580 342 3 1
20 -39 38 -88z m9736 -81 c157 -91 286 -169 286 -173 0 -5 -38 -97 -84 -206
-276 -648 -627 -1360 -939 -1906 -577 -1010 -1128 -1672 -1601 -1924 l-59 -31
-446 0 -446 0 -89 448 c-49 246 -91 455 -94 464 -3 13 26 31 129 82 322 157
578 325 864 566 94 80 338 325 422 425 371 439 646 965 789 1506 15 57 33 109
41 115 7 6 32 15 56 18 66 11 175 45 261 82 268 117 475 338 577 615 19 49 37
88 40 87 4 -2 136 -77 293 -168z m-5813 -3559 c536 -111 1076 -106 1637 16 67
14 125 23 128 20 7 -6 144 -680 144 -704 0 -11 -216 -13 -1130 -13 -918 0
-1130 2 -1130 13 0 12 122 630 135 686 7 27 -10 28 216 -18z m4817 -1315 c60
-33 101 -76 134 -139 l23 -42 3 -2142 2 -2143 -4200 0 -4200 0 0 2123 c0 1413
4 2134 10 2159 24 86 119 183 204 207 18 6 1636 9 4001 8 l3970 -2 53 -29z
m565 -5086 c70 -26 125 -75 162 -141 30 -54 30 -54 33 -246 l4 -193 -4802 0
-4802 0 4 193 c3 192 3 192 33 246 36 65 92 115 159 140 50 20 112 20 4603 20
4534 1 4552 1 4606 -19z"/>
<path d="M7703 12582 c-101 -36 -171 -114 -193 -216 -8 -32 -11 -124 -8 -246
3 -173 5 -200 24 -241 31 -66 78 -114 142 -146 47 -23 70 -28 132 -28 125 0
222 62 274 174 19 42 21 63 21 271 0 208 -2 229 -21 271 -65 141 -229 212
-371 161z"/>
<path d="M11303 12582 c-101 -36 -171 -114 -193 -216 -8 -32 -11 -124 -8 -246
3 -173 5 -200 24 -241 31 -66 78 -114 142 -146 47 -23 70 -28 132 -28 125 0
222 62 274 174 19 42 21 63 21 271 0 208 -2 229 -21 271 -65 141 -229 212
-371 161z"/>
<path d="M8345 11082 c-98 -34 -163 -101 -191 -201 -22 -73 -14 -141 31 -271
164 -474 558 -838 1039 -961 760 -194 1533 221 1791 961 20 58 39 134 42 170
20 249 -270 410 -473 261 -57 -42 -88 -92 -120 -191 -99 -313 -310 -522 -621
-617 -79 -24 -103 -27 -243 -27 -140 0 -164 3 -243 27 -311 95 -522 304 -621
617 -33 102 -65 151 -124 192 -84 58 -176 72 -267 40z"/>
<path d="M9907 5836 c-20 -8 -45 -20 -55 -27 -45 -34 -85 -77 -102 -109 -16
-31 -157 -414 -375 -1015 -40 -110 -166 -456 -280 -770 -205 -563 -207 -570
-203 -635 11 -150 116 -258 271 -276 98 -12 211 40 268 122 17 25 113 273 243
630 118 324 308 843 422 1154 203 554 207 567 208 645 1 65 -3 89 -23 128 -52
106 -149 167 -266 166 -38 0 -87 -6 -108 -13z"/>
<path d="M8304 5682 c-28 -10 -68 -32 -90 -49 -21 -17 -249 -242 -505 -500
-517 -519 -504 -503 -504 -633 0 -131 -15 -112 524 -653 548 -550 538 -542
671 -542 172 1 295 122 295 290 0 134 5 127 -404 537 l-365 368 361 363 c388
388 399 402 410 511 12 116 -57 240 -161 291 -73 36 -162 42 -232 17z"/>
<path d="M10713 5686 c-175 -57 -258 -244 -183 -413 17 -38 98 -125 383 -410
l361 -363 -365 -368 c-409 -410 -404 -403 -404 -537 0 -168 123 -289 295 -290
133 0 123 -8 671 542 539 541 524 522 524 653 0 131 15 112 -524 653 -387 388
-497 493 -538 514 -64 31 -159 39 -220 19z"/>
</g>
</svg>
