<svg width="256" height="256" viewBox="0 0 256 256" fill="none" xmlns="http://www.w3.org/2000/svg">
<g clip-path="url(#clip0_682_113)">
<path d="M196 0H60C26.8629 0 0 26.8629 0 60V196C0 229.137 26.8629 256 60 256H196C229.137 256 256 229.137 256 196V60C256 26.8629 229.137 0 196 0Z" fill="#FF6C37"/>
<path d="M169.061 88.6121L118.521 139.153L104.268 124.901C153.971 75.1991 158.882 79.5111 169.061 88.6121Z" fill="#EEEEEE"/>
<path d="M118.521 140.35C118.161 140.35 117.922 140.231 117.682 139.991L103.31 125.739C103.197 125.631 103.106 125.501 103.044 125.357C102.983 125.213 102.951 125.058 102.951 124.901C102.951 124.745 102.983 124.59 103.044 124.446C103.106 124.302 103.197 124.172 103.31 124.063C153.851 73.5215 159.12 78.3125 169.78 87.8935C170.02 88.1335 170.139 88.3735 170.139 88.7325C170.139 89.0925 170.02 89.3315 169.78 89.5695L119.239 139.991C119.12 140.231 118.76 140.35 118.521 140.35ZM105.945 124.901L118.521 137.476L167.265 88.7325C158.403 80.8275 152.414 78.4325 105.945 124.901Z" fill="#FF6C37"/>
<path d="M133.012 153.645L119.239 139.872L169.78 89.332C183.314 102.984 163.073 125.141 133.012 153.645Z" fill="#EEEEEE"/>
<path d="M133.012 154.843C132.652 154.843 132.414 154.723 132.174 154.483L118.401 140.71C118.161 140.471 118.161 140.231 118.161 139.872C118.161 139.512 118.281 139.273 118.521 139.033L169.061 88.4932C169.169 88.3799 169.299 88.2897 169.444 88.2281C169.588 88.1665 169.743 88.1348 169.9 88.1348C170.056 88.1348 170.211 88.1665 170.355 88.2281C170.5 88.2897 170.63 88.3799 170.738 88.4932C172.267 89.9082 173.475 91.6345 174.281 93.5558C175.087 95.4771 175.471 97.5487 175.409 99.6312C175.17 112.924 160.079 129.811 133.97 154.483C133.611 154.723 133.251 154.843 133.012 154.843ZM120.916 139.872C128.58 147.656 131.815 150.771 133.012 151.968C153.133 132.806 172.654 113.164 172.774 99.6312C172.894 96.5172 171.697 93.4032 169.66 91.0072L120.916 139.872Z" fill="#FF6C37"/>
<path d="M104.508 125.26L114.688 135.44C114.927 135.68 114.927 135.919 114.688 136.159C114.568 136.279 114.568 136.279 114.449 136.279L93.369 140.83C92.292 140.95 91.334 140.231 91.094 139.153C90.974 138.554 91.214 137.956 91.574 137.596L103.789 125.38C104.029 125.14 104.388 125.02 104.508 125.26Z" fill="#EEEEEE"/>
<path d="M93.01 142.028C91.214 142.028 89.896 140.59 89.896 138.793C89.896 137.956 90.256 137.117 90.855 136.518L103.07 124.302C103.789 123.703 104.748 123.703 105.466 124.302L115.646 134.482C116.364 135.081 116.364 136.159 115.646 136.877C115.406 137.117 115.167 137.237 114.807 137.357L93.729 141.908C93.489 141.908 93.249 142.028 93.01 142.028ZM104.149 126.577L92.412 138.314C92.172 138.554 92.052 138.913 92.292 139.272C92.412 139.632 92.77 139.752 93.13 139.632L112.891 135.32L104.149 126.577Z" fill="#FF6C37"/>
<path d="M195.769 60.5883C188.104 53.1633 175.768 53.4023 168.342 61.1873C160.917 68.9713 161.157 81.1873 168.941 88.6133C172.014 91.583 175.983 93.452 180.23 93.9286C184.476 94.4053 188.761 93.4628 192.416 91.2483L178.762 77.5943L195.769 60.5883Z" fill="#EEEEEE"/>
<path d="M182.355 95.2C170.978 95.2 161.756 85.978 161.756 74.6C161.756 63.222 170.978 54 182.355 54C187.625 54 192.775 56.036 196.607 59.749C196.847 59.989 196.967 60.229 196.967 60.587C196.967 60.947 196.847 61.187 196.607 61.426L180.439 77.594L193.134 90.289C193.614 90.769 193.614 91.487 193.134 91.966L192.895 92.206C189.781 94.121 186.068 95.2 182.355 95.2ZM182.355 56.516C172.295 56.516 164.151 64.659 164.271 74.72C164.271 84.78 172.414 92.924 182.475 92.805C185.23 92.805 187.984 92.205 190.499 90.888L177.924 78.433C177.684 78.193 177.565 77.953 177.565 77.594C177.565 77.234 177.684 76.995 177.924 76.756L193.973 60.707C190.739 57.953 186.667 56.516 182.355 56.516Z" fill="#FF6C37"/>
<path d="M196.128 60.947L195.889 60.707L178.762 77.594L192.296 91.128C193.614 90.289 194.93 89.332 196.009 88.254C197.823 86.4766 199.267 84.3568 200.256 82.0173C201.246 79.6779 201.761 77.1653 201.772 74.6254C201.783 72.0854 201.29 69.5685 200.321 67.2205C199.352 64.8725 197.927 62.7402 196.128 60.947Z" fill="#EEEEEE"/>
<path d="M192.416 92.4446C192.056 92.4446 191.817 92.3246 191.577 92.0846L177.924 78.4316C177.684 78.1916 177.565 77.9527 177.565 77.5937C177.565 77.2337 177.684 76.9936 177.924 76.7546L194.93 59.7496C195.41 59.2696 196.128 59.2696 196.607 59.7496L196.967 59.9897C204.991 68.0126 204.991 80.9477 197.087 89.0927C195.889 90.2897 194.571 91.3677 193.134 92.2057C192.775 92.3256 192.536 92.4446 192.416 92.4446ZM180.439 77.5947L192.536 89.6907C193.494 89.0927 194.452 88.2537 195.17 87.5347C201.997 80.7077 202.356 69.5706 195.769 62.3846L180.439 77.5947Z" fill="#FF6C37"/>
<path d="M171.098 90.7669C169.715 89.3866 167.842 88.6113 165.888 88.6113C163.934 88.6113 162.061 89.3866 160.678 90.7669L115.526 135.919L123.072 143.464L170.858 101.547C173.972 98.9109 174.211 94.2399 171.577 91.1269C171.337 91.0069 171.217 90.8869 171.098 90.7669Z" fill="#EEEEEE"/>
<path d="M122.952 144.662C122.593 144.662 122.353 144.542 122.113 144.303L114.568 136.758C114.455 136.65 114.365 136.52 114.303 136.376C114.241 136.232 114.21 136.077 114.21 135.92C114.21 135.763 114.241 135.608 114.303 135.464C114.365 135.32 114.455 135.19 114.568 135.081L159.719 89.9294C160.512 89.1322 161.454 88.4996 162.492 88.0679C163.53 87.6363 164.643 87.4141 165.768 87.4141C166.892 87.4141 168.005 87.6363 169.043 88.0679C170.081 88.4996 171.023 89.1322 171.816 89.9294C172.613 90.7221 173.246 91.6645 173.677 92.7025C174.109 93.7406 174.331 94.8537 174.331 95.9779C174.331 97.1021 174.109 98.2152 173.677 99.2532C173.246 100.291 172.613 101.234 171.816 102.026L171.457 102.385L123.67 144.303C123.551 144.543 123.311 144.662 122.952 144.662ZM117.203 135.919L123.072 141.788L170.02 100.588C172.654 98.4324 172.894 94.4804 170.738 91.8464C168.582 89.2124 164.63 88.9724 161.995 91.1264C161.876 91.2464 161.756 91.3664 161.516 91.4864L117.203 135.919Z" fill="#FF6C37"/>
<path d="M80.914 187.3C80.434 187.539 80.195 188.018 80.314 188.497L82.351 197.121C82.831 198.318 82.111 199.756 80.794 200.115C79.836 200.474 78.759 200.115 78.16 199.397L64.985 186.342L107.981 143.346L122.832 143.585L132.892 153.646C130.497 155.682 116.005 169.694 80.914 187.3Z" fill="#EEEEEE"/>
<path d="M79.956 201.311C78.998 201.311 78.04 200.952 77.441 200.234L64.386 187.179C64.146 186.94 64.027 186.7 64.027 186.341C64.027 185.982 64.147 185.742 64.387 185.502L107.382 142.507C107.622 142.267 107.981 142.147 108.221 142.147L123.072 142.387C123.431 142.387 123.67 142.507 123.909 142.746L133.97 152.806C134.21 153.046 134.329 153.405 134.329 153.764C134.329 154.124 134.21 154.363 133.85 154.603L133.012 155.322C120.317 166.459 103.07 177.598 81.632 188.257L83.669 196.76C84.028 198.317 83.309 199.994 81.872 200.832C81.153 201.191 80.555 201.311 79.956 201.311ZM66.781 186.341L79.118 198.557C79.476 199.156 80.195 199.395 80.794 199.036C81.393 198.677 81.633 197.958 81.274 197.359L79.238 188.736C78.998 187.658 79.476 186.7 80.435 186.221C101.633 175.562 118.76 164.544 131.335 153.645L122.473 144.782L108.7 144.542L66.781 186.341Z" fill="#FF6C37"/>
<path d="M54.805 196.641L65.105 186.341L80.435 201.671L56.003 199.995C54.925 199.875 54.206 198.917 54.326 197.838C54.326 197.359 54.445 196.88 54.805 196.641Z" fill="#EEEEEE"/>
<path d="M80.435 202.749L55.883 201.072C54.086 200.952 52.888 199.396 53.008 197.599C53.128 196.88 53.368 196.162 53.967 195.683L64.267 185.383C64.3751 185.269 64.5051 185.179 64.6491 185.117C64.7932 185.055 64.9483 185.023 65.105 185.023C65.2618 185.023 65.4169 185.055 65.5609 185.117C65.705 185.179 65.835 185.269 65.943 185.383L81.273 200.713C81.633 201.072 81.753 201.551 81.513 202.031C81.273 202.509 80.9137 202.749 80.435 202.749ZM65.105 188.018L55.644 197.479C55.284 197.719 55.284 198.318 55.644 198.557C55.764 198.677 55.884 198.797 56.123 198.797L77.321 200.234L65.105 188.018ZM103.789 148.855C103.07 148.855 102.591 148.256 102.591 147.657C102.591 147.298 102.711 147.059 102.951 146.819L114.568 135.202C114.676 135.088 114.806 134.997 114.95 134.936C115.094 134.874 115.25 134.842 115.407 134.842C115.563 134.842 115.719 134.874 115.863 134.936C116.007 134.997 116.137 135.088 116.245 135.202L123.79 142.747C124.149 143.106 124.269 143.465 124.149 143.945C124.029 144.304 123.67 144.663 123.192 144.783L104.029 148.855H103.789ZM115.406 137.717L107.502 145.622L120.436 142.866L115.406 137.717Z" fill="#FF6C37"/>
<path d="M122.832 143.584L109.658 146.459C108.7 146.699 107.741 146.1 107.502 145.142C107.382 144.543 107.502 143.944 107.981 143.465L115.286 136.159L122.832 143.584Z" fill="#EEEEEE"/>
<path d="M109.418 147.657C109.024 147.661 108.633 147.587 108.267 147.438C107.902 147.289 107.571 147.068 107.292 146.789C107.013 146.511 106.793 146.179 106.644 145.814C106.495 145.449 106.42 145.058 106.424 144.663C106.424 143.825 106.783 143.106 107.262 142.508L114.568 135.202C114.676 135.089 114.806 134.998 114.95 134.936C115.094 134.875 115.25 134.843 115.406 134.843C115.563 134.843 115.719 134.875 115.863 134.936C116.007 134.998 116.137 135.089 116.245 135.202L123.79 142.747C124.149 143.106 124.269 143.465 124.149 143.945C124.029 144.304 123.67 144.663 123.192 144.783L110.017 147.657H109.418ZM115.406 137.717L108.939 144.184C108.7 144.424 108.7 144.663 108.819 144.903C108.939 145.143 109.179 145.262 109.538 145.262L120.556 142.866L115.406 137.717ZM196.248 72.4434C196.009 71.7254 195.17 71.3664 194.451 71.6064C193.733 71.8444 193.374 72.6834 193.614 73.4024C193.614 73.5224 193.733 73.6424 193.733 73.7614C194.451 75.1994 194.213 76.9954 193.254 78.3124C192.775 78.9124 192.895 79.7504 193.374 80.2294C193.973 80.7074 194.811 80.5894 195.29 79.9894C197.087 77.7134 197.446 74.8394 196.248 72.4434Z" fill="#FF6C37"/>
</g>
<defs>
<clipPath id="clip0_682_113">
<rect width="256" height="256" fill="white"/>
</clipPath>
</defs>
</svg>
