<svg width="133" height="137" viewBox="0 0 133 137" fill="none" xmlns="http://www.w3.org/2000/svg">
<path d="M99.3023 99.9736C100.178 92.6892 99.9156 91.6199 105.341 92.8007L106.718 92.9212C110.891 93.1107 116.349 92.2499 119.556 90.7603C126.459 87.5568 130.551 82.2103 123.746 83.6141C108.22 86.8176 107.153 81.5603 107.153 81.5603C123.547 57.2362 130.4 26.358 124.484 18.7993C108.35 -1.81623 80.4218 7.93236 79.9546 8.18435L79.8052 8.21223C76.7377 7.57555 73.3046 7.19533 69.4478 7.13289C62.422 7.01693 57.0911 8.9749 53.047 12.0412C53.047 12.0412 3.22469 -8.48515 5.54281 37.8549C6.03565 47.7128 19.6723 112.447 35.9382 92.8944C41.8834 85.7449 47.628 79.6993 47.628 79.6993C50.4802 81.5937 53.8966 82.5615 57.4781 82.2137L57.7557 81.9773C57.6687 82.8648 57.7066 83.7334 57.8661 84.7615C53.677 89.4434 54.9079 90.2652 46.5308 91.989C38.0545 93.7351 43.0341 96.8449 46.2844 97.6578C50.226 98.6434 59.3435 100.039 65.5051 91.4159L65.2598 92.3993C66.9033 93.7151 66.7929 101.851 67.0248 107.664C67.2579 113.478 67.647 118.902 68.8323 122.101C70.0175 125.299 71.4158 133.537 82.4254 131.177C91.6266 129.21 98.6612 126.373 99.3023 99.9736Z" fill="black"/>
<path d="M78.8407 136.93C73.9714 136.93 70.8003 135.047 68.8747 133.228C65.9678 130.485 64.8149 126.951 64.1258 124.841L63.8281 123.96C62.441 120.216 61.9705 114.825 61.6918 107.882C61.6494 106.84 61.6204 105.766 61.5881 104.628C61.5646 103.795 61.5357 102.75 61.4933 101.657C59.7617 102.485 57.9107 103.073 55.9606 103.406C52.5274 103.992 48.8367 103.803 44.9888 102.84C42.2737 102.161 39.4528 100.754 37.8449 98.581C33.1585 102.685 28.6884 102.129 26.2532 101.316C21.957 99.8833 18.1124 95.857 14.4987 89.0097C11.9241 84.1315 9.43427 77.7759 7.0972 70.118C3.02739 56.7824 0.441662 42.7365 0.211969 38.1248C-0.510562 23.6909 3.37527 13.3681 11.7591 7.44623C24.9843 -1.89538 45.0223 3.5983 52.3278 6.0926C57.2362 3.13446 63.0108 1.69497 69.5359 1.79867C73.0404 1.85553 76.3776 2.16328 79.4774 2.71633C82.7109 1.69943 89.0978 0.239873 96.4089 0.331304C109.879 0.491867 121.042 5.74137 128.688 15.5123C134.144 22.4833 131.446 37.1224 129.353 45.2286C126.407 56.6307 121.246 68.7577 114.906 79.3146C116.628 79.3269 119.122 79.1206 122.668 78.3881C129.663 76.9441 131.709 80.695 132.265 82.3742C134.489 89.1112 124.82 94.2023 121.803 95.6028C117.939 97.3969 111.638 98.4896 106.478 98.2532L106.252 98.2387L104.896 98.1194L104.763 99.25L104.633 100.355C104.287 113.734 102.375 122.207 98.4427 127.806C94.3205 133.675 88.5915 135.32 83.545 136.401C81.8234 136.769 80.259 136.93 78.8407 136.93ZM68.5937 88.2359C71.7369 90.7514 72.0124 95.4846 72.2588 104.33C72.29 105.434 72.319 106.479 72.358 107.454C72.4762 110.409 72.7538 117.328 73.8376 120.251C73.9904 120.665 74.1275 121.084 74.2725 121.529C75.4801 125.227 76.0855 127.081 81.3071 125.965C85.6903 125.025 87.9437 124.182 89.7077 121.671C92.2711 118.02 93.705 110.677 93.9681 99.8443L99.3013 99.9737L94.0049 99.3381L94.161 98.0157C94.6684 93.656 95.0341 90.5072 97.9476 88.4243C100.286 86.754 102.95 86.9157 105.071 87.2982C102.74 85.5364 102.096 83.4703 101.924 82.6229L101.479 80.4319L102.729 78.5776C109.929 67.8957 115.865 54.7675 119.018 42.5581C122.258 30.013 121.27 23.3508 120.283 22.0909C107.205 5.3801 84.5262 12.2798 82.1579 13.0626L81.7576 13.2789L79.7506 13.6524L78.7225 13.4394C75.8881 12.8507 72.7393 12.5251 69.3642 12.4705C64.0612 12.3813 59.7829 13.6346 56.275 16.2961L53.8409 18.1415L51.0166 16.9785C44.9821 14.511 27.2578 9.55026 17.9051 16.1746C12.7135 19.8519 10.3486 27.0571 10.8749 37.5907C11.0488 41.0684 13.4115 54.2334 17.3096 67.0015C22.6963 84.6466 27.5912 90.5083 29.635 91.1896C29.9918 91.31 30.9173 90.5908 31.8383 89.4847C37.8259 82.2828 43.5226 76.2784 43.7623 76.0264L46.8509 72.7762L50.5851 75.2571C52.0904 76.2573 53.7506 76.8248 55.4555 76.9318L64.3611 69.3363L63.071 82.5025C63.042 82.7979 63.0276 83.2005 63.1435 83.9475L63.5315 86.4429L61.8479 88.3251L61.6538 88.5436L66.5465 90.8015L68.5937 88.2359Z" fill="black"/>
<path d="M123.746 83.6141C108.219 86.8176 107.152 81.5603 107.152 81.5603C123.546 57.2351 130.399 26.3558 124.485 18.7993C108.351 -1.81509 80.4207 7.9335 79.9547 8.18661L79.8041 8.21337C76.7367 7.57669 73.3036 7.19759 69.4445 7.13515C62.4188 7.0203 57.0901 8.97715 53.046 12.0435C53.046 12.0435 3.22256 -8.48177 5.53956 37.8572C6.0324 47.7162 19.6691 112.451 35.9349 92.8978C41.8802 85.7483 47.6236 79.7027 47.6236 79.7027C50.477 81.5971 53.8923 82.5649 57.4726 82.217L57.7513 81.9806C57.6644 82.8682 57.7045 83.7368 57.8628 84.7648C53.6726 89.4468 54.9036 90.2686 46.5265 91.9924C38.0501 93.7385 43.0298 96.8483 46.2812 97.6611C50.2216 98.6468 59.3402 100.043 65.5007 91.4193L65.2543 92.4027C66.8967 93.7184 68.0496 100.957 67.8567 107.519C67.6627 114.081 67.5334 118.587 68.8279 122.106C70.1213 125.625 71.4103 133.541 82.4222 131.182C91.6233 129.211 96.3911 124.1 97.0557 115.577C97.5262 109.517 98.5911 110.414 98.6591 104.996L99.5143 102.431C100.5 94.2168 99.6704 91.5676 105.34 92.7997L106.717 92.9201C110.89 93.1096 116.35 92.2488 119.556 90.7592C126.458 87.558 130.551 82.2103 123.746 83.6141Z" fill="#336791"/>
<path d="M79.3971 133.642C70.2183 133.642 67.3103 126.373 66.1206 123.4C64.3789 119.044 64.0032 102.138 64.3912 88.2738C64.4179 87.2915 65.2319 86.5154 66.2198 86.5455C67.2021 86.5723 67.976 87.3907 67.9481 88.373C67.501 104.363 68.1354 118.854 69.4244 122.079C71.4359 127.106 74.4865 131.504 83.1112 129.657C91.2988 127.9 94.3651 124.796 95.731 116.878C96.7791 110.803 98.8519 93.5177 99.1072 90.1069C99.1808 89.1279 100.03 88.3909 101.014 88.4656C101.993 88.5392 102.728 89.3933 102.655 90.3722C102.389 93.9236 100.326 111.175 99.2377 117.484C97.6254 126.836 93.4563 131.077 83.8571 133.135C82.2259 133.484 80.744 133.64 79.3971 133.642ZM29.6272 98.1383C28.7519 98.1383 27.9569 97.9767 27.2678 97.7481C21.3058 95.7589 15.627 86.0493 10.3887 68.8859C6.4014 55.8212 3.87477 42.1846 3.65288 37.7524C2.99613 24.613 6.37909 15.3171 13.7103 10.1245C28.2134 -0.151498 52.611 9.63389 53.6424 10.0554C54.5512 10.4267 54.9882 11.4659 54.6158 12.3757C54.2445 13.2845 53.2053 13.7204 52.2966 13.3502C52.0613 13.2543 28.666 3.88152 15.7597 13.0325C9.49111 17.4769 6.61325 25.7347 7.20532 37.5751C7.39153 41.3093 9.75202 54.6181 13.7906 67.8467C18.467 83.1692 23.789 92.8375 28.3929 94.3729C29.1154 94.6138 31.3142 95.3463 34.4574 91.5664C40.3726 84.4504 45.8061 78.7705 45.8607 78.7147C46.5409 78.0056 47.6671 77.9822 48.3762 78.6623C49.0854 79.3425 49.1099 80.4687 48.4297 81.1767C48.3762 81.2325 43.0252 86.8265 37.1937 93.8422C34.4318 97.1638 31.7847 98.1383 29.6272 98.1383ZM107.042 83.1469C106.699 83.1469 106.354 83.0488 106.048 82.8437C105.234 82.294 105.018 81.189 105.568 80.3739C122.14 55.7822 127.957 26.0681 122.975 19.7014C116.704 11.6889 107.85 7.50421 96.6564 7.26225C88.3685 7.08384 81.781 9.20015 80.7039 9.56922L80.4329 9.6796C79.3502 10.0197 78.5196 9.42649 78.2062 8.73295C77.8349 7.9123 78.1393 6.94224 78.9098 6.47505C78.9611 6.44494 79.1239 6.37581 79.3882 6.2788C81.2179 5.60868 87.9058 3.60165 96.1892 3.69642C108.575 3.828 118.806 8.60361 125.775 17.5093C129.072 21.7229 129.08 31.4302 125.796 44.1437C122.449 57.1057 116.15 71.0356 108.517 82.3631C108.176 82.8726 107.614 83.1469 107.042 83.1469ZM107.889 94.5313C105.059 94.5313 102.523 94.1321 101.004 93.2222C99.4428 92.2867 99.1451 91.0156 99.1061 90.341C98.6802 82.8593 102.808 81.5569 104.913 80.9626C104.62 80.5188 104.203 79.997 103.771 79.4585C102.544 77.9242 100.862 75.8235 99.5666 72.6814C99.3637 72.1908 98.7281 71.0501 97.9922 69.7288C94.0016 62.5726 85.698 47.6816 91.0323 40.056C93.5009 36.527 98.417 35.1377 105.66 35.9126C103.529 29.421 93.3827 9.11429 69.3062 8.71957C62.0653 8.59915 56.1267 10.8258 51.6644 15.3316C41.6738 25.4214 42.0351 43.6776 42.0407 43.8604C42.0663 44.8428 41.2914 45.6601 40.3091 45.6857C39.3267 45.7169 38.5105 44.9364 38.4838 43.9541C38.4615 43.1435 38.0891 23.9853 49.1366 12.8273C54.307 7.60567 61.113 5.02775 69.3653 5.16267C84.7681 5.41578 94.6828 13.2465 100.287 19.7705C106.396 26.881 109.391 34.724 109.637 37.3421C109.821 39.2889 108.424 39.678 108.142 39.736L107.5 39.7505C100.392 38.6121 95.8313 39.4026 93.9458 42.0965C89.8883 47.8957 97.7436 61.9817 101.098 67.9972C101.954 69.5315 102.572 70.6409 102.855 71.3255C103.956 73.9971 105.394 75.7923 106.548 77.2351C107.564 78.504 108.443 79.6045 108.758 80.8957C108.904 81.1522 110.977 84.2185 123.276 81.6796C126.359 81.044 128.208 81.587 128.773 83.2964C129.885 86.6581 123.648 90.5796 120.194 92.183C117.1 93.6214 112.162 94.5313 107.889 94.5313ZM102.653 90.0478C103.043 90.4414 104.996 91.1204 109.039 90.9465C112.633 90.7926 116.425 90.011 118.699 88.9551C121.608 87.6037 123.551 86.0928 124.556 85.0614L123.999 85.164C116.135 86.7875 110.572 86.5712 107.465 84.5206C107.244 84.3746 107.044 84.2229 106.863 84.0735C106.527 84.2062 106.215 84.2932 105.994 84.3556C104.232 84.8496 102.41 85.3614 102.653 90.0478ZM51.8506 99.9882C49.8971 99.9882 47.841 99.7217 45.7414 99.1965C43.566 98.6524 39.8987 97.0144 39.9545 94.3239C40.018 91.3055 44.4079 90.4001 46.0603 90.06C52.0301 88.8302 52.4193 88.3373 54.2847 85.9679C54.8288 85.2777 55.5056 84.4181 56.4289 83.3878C57.7992 81.8535 59.2967 81.0764 60.88 81.0764C61.9827 81.0764 62.887 81.4499 63.4847 81.6985C65.3891 82.488 66.978 84.3969 67.6314 86.6793C68.2213 88.7388 67.9392 90.7213 66.8398 92.2611C63.2305 97.3155 58.0467 99.9882 51.8506 99.9882ZM43.7979 94.4766C44.3343 94.8914 45.4091 95.4456 46.6056 95.7444C48.4241 96.1993 50.1881 96.4301 51.8517 96.4301C56.9206 96.4301 60.9904 94.3317 63.9463 90.1927C64.5629 89.3297 64.3778 88.2337 64.2128 87.6572C63.8671 86.4496 63.0086 85.3513 62.1244 84.9845C61.6449 84.786 61.2468 84.6344 60.8811 84.6344C60.6849 84.6344 60.0872 84.6344 59.0815 85.7594C58.2318 86.7083 57.6197 87.4855 57.0811 88.1701C54.7574 91.1204 53.6926 92.1217 46.7795 93.5456C45.0925 93.8912 44.2272 94.2436 43.7979 94.4766ZM57.4781 86.2701C56.6151 86.2701 55.8568 85.6401 55.7219 84.7604C55.6773 84.4649 55.6483 84.1683 55.6327 83.8695C51.1013 83.7847 46.7293 81.8401 43.4099 78.3769C39.213 73.9982 37.303 67.9314 38.1705 61.733C39.1126 55.0017 38.7603 49.0598 38.5707 45.8675C38.5183 44.9799 38.4804 44.3388 38.4827 43.895C38.486 43.3319 38.4972 41.8389 43.488 39.3089C45.2631 38.4091 48.8222 36.8392 52.7103 36.4367C59.1517 35.771 63.3977 38.6399 64.6688 44.5161C68.0997 60.3805 64.9409 67.3973 62.6339 72.5219C62.2046 73.4764 61.7988 74.3773 61.4743 75.2504L61.1877 76.0198C59.969 79.2879 58.9153 82.1111 59.2387 84.2196C59.3881 85.1908 58.7213 86.0984 57.7501 86.2478L57.4781 86.2701ZM42.0518 44.3878L42.121 45.6578C42.3172 48.9739 42.6829 55.1444 41.6928 62.227C40.9781 67.3393 42.5391 72.3291 45.9778 75.9149C48.6951 78.7493 52.271 80.3137 55.946 80.3137H56.0219C56.4333 78.5798 57.1168 76.749 57.8527 74.7765L58.1371 74.0116C58.5039 73.0259 58.9332 72.0715 59.3881 71.0613C61.6081 66.1284 64.3722 59.988 61.1889 45.2687C60.5589 42.3529 59.0302 40.6659 56.5181 40.1095C51.3578 38.97 43.6675 42.8513 42.0518 44.3878ZM52.7894 43.633C52.7002 44.2618 53.9412 45.9411 55.5603 46.1652C57.1759 46.3915 58.5585 45.078 58.6466 44.4492C58.7347 43.8203 57.4948 43.1268 55.8758 42.9015C54.2579 42.6763 52.8753 43.0041 52.7894 43.633ZM55.9316 46.784L55.4777 46.7528C54.4742 46.6134 53.4596 45.9812 52.7649 45.0602C52.5207 44.7368 52.1227 44.1102 52.2018 43.5505C52.3144 42.7298 53.3157 42.2381 54.8779 42.2381C55.2269 42.2381 55.5904 42.2637 55.9561 42.315C56.8102 42.4332 57.603 42.6796 58.1883 43.0063C59.203 43.5728 59.2777 44.205 59.232 44.5317C59.1071 45.4382 57.6654 46.784 55.9316 46.784ZM53.3793 43.7378C53.4295 44.1258 54.3906 45.4059 55.6416 45.5787L55.9327 45.5988C57.0878 45.5988 57.9508 44.69 58.0523 44.3923C57.9453 44.1894 57.2027 43.6854 55.7944 43.4891C55.4822 43.4445 55.1745 43.4234 54.879 43.4234C53.9736 43.4234 53.493 43.6274 53.3793 43.7378ZM102 42.3496C102.088 42.9785 100.848 44.6577 99.2299 44.8829C97.6131 45.1081 96.2294 43.7958 96.1402 43.1669C96.0554 42.538 97.2953 41.8434 98.9121 41.6193C100.529 41.3929 101.91 41.7218 102 42.3496ZM98.8563 45.204C97.2998 45.204 95.9562 43.9931 95.8458 43.207C95.7176 42.2637 97.2708 41.5468 98.8697 41.3249C99.2221 41.2758 99.5711 41.2513 99.9067 41.2513C101.287 41.2513 102.201 41.6561 102.293 42.3095C102.352 42.732 102.027 43.3843 101.469 43.9731C101.1 44.36 100.325 45.0301 99.2689 45.1762L98.8563 45.204ZM99.9078 41.8445C99.6001 41.8445 99.2789 41.8679 98.9534 41.9125C97.3466 42.1366 96.3877 42.7811 96.4345 43.1268C96.4881 43.507 97.5139 44.612 98.8575 44.612L99.1886 44.5885C100.066 44.467 100.725 43.8939 101.04 43.5638C101.534 43.0454 101.73 42.557 101.706 42.3908C101.675 42.1701 101.082 41.8445 99.9078 41.8445ZM104.329 78.465C103.989 78.465 103.645 78.3669 103.341 78.1639C102.525 77.6176 102.305 76.5126 102.853 75.6964C106.641 70.0377 105.948 64.2675 105.278 58.6868C104.991 56.3096 104.697 53.851 104.773 51.4916C104.851 49.0642 105.16 47.0617 105.457 45.1249C105.811 42.8302 106.145 40.6626 106.007 38.0891C105.953 37.1079 106.706 36.2705 107.687 36.217C108.672 36.1646 109.507 36.9161 109.559 37.8973C109.718 40.8387 109.34 43.2918 108.974 45.6656C108.692 47.4976 108.4 49.392 108.33 51.6053C108.262 53.6949 108.528 55.9138 108.81 58.262C109.524 64.1961 110.332 70.9219 105.81 77.6756C105.466 78.1873 104.903 78.465 104.329 78.465Z" fill="white"/>
</svg>
