<svg width="256" height="228" viewBox="0 0 256 228" fill="none" xmlns="http://www.w3.org/2000/svg">
<path d="M210.483 73.8238C207.759 72.8893 205.011 72.0234 202.243 71.2268C202.708 69.3268 203.136 67.4498 203.516 65.6058C209.754 35.3248 205.676 10.9298 191.747 2.89783C178.392 -4.80217 156.551 3.22683 134.493 22.4238C132.319 24.3191 130.193 26.269 128.118 28.2718C126.729 26.9401 125.315 25.6342 123.877 24.3548C100.759 3.82883 77.587 -4.82217 63.673 3.23283C50.33 10.9568 46.379 33.8898 51.995 62.5878C52.5537 65.4301 53.1846 68.2576 53.887 71.0678C50.607 71.9998 47.442 72.9918 44.413 74.0478C17.309 83.4978 0 98.3068 0 113.668C0 129.533 18.582 145.446 46.812 155.095C49.1007 155.874 51.4084 156.596 53.733 157.26C52.9783 160.287 52.308 163.334 51.723 166.398C46.369 194.598 50.55 216.989 63.857 224.664C77.601 232.59 100.669 224.444 123.13 204.809C124.951 203.212 126.732 201.571 128.472 199.886C130.72 202.054 133.027 204.16 135.392 206.2C157.15 224.922 178.638 232.482 191.932 224.786C205.663 216.837 210.126 192.783 204.332 163.518C203.876 161.225 203.364 158.944 202.797 156.676C204.417 156.196 206.007 155.702 207.557 155.188C236.905 145.465 256 129.745 256 113.668C256 98.2508 238.132 83.3418 210.483 73.8238ZM204.118 144.808C202.717 145.27 201.283 145.719 199.818 146.153C196.578 135.896 192.206 124.99 186.855 113.721C191.961 102.721 196.165 91.9538 199.314 81.7638C201.933 82.5218 204.474 83.3208 206.924 84.1638C230.614 92.3198 245.064 104.377 245.064 113.668C245.064 123.564 229.458 136.411 204.118 144.808ZM193.604 165.642C196.166 178.582 196.531 190.282 194.834 199.429C193.31 207.648 190.244 213.127 186.452 215.322C178.385 219.992 161.132 213.922 142.525 197.91C140.325 196.013 138.179 194.056 136.088 192.04C143.302 184.151 150.511 174.98 157.547 164.794C169.923 163.696 181.615 161.9 192.218 159.449C192.741 161.557 193.203 163.621 193.604 165.642ZM87.276 214.515C79.394 217.298 73.116 217.378 69.321 215.19C61.246 210.533 57.889 192.554 62.468 168.438C63.0124 165.588 63.6356 162.754 64.337 159.939C74.823 162.259 86.43 163.927 98.835 164.933C105.919 174.9 113.336 184.061 120.811 192.083C119.222 193.62 117.596 195.118 115.934 196.575C106.001 205.257 96.048 211.417 87.276 214.515ZM50.35 144.747C37.867 140.48 27.558 134.935 20.492 128.884C14.142 123.447 10.937 118.048 10.937 113.668C10.937 104.346 24.834 92.4558 48.013 84.3748C50.826 83.3948 53.77 82.4698 56.825 81.6018C60.029 92.0218 64.231 102.917 69.302 113.934C64.165 125.114 59.903 136.183 56.668 146.726C54.5461 146.118 52.4395 145.458 50.35 144.747ZM62.728 60.4868C57.917 35.8998 61.112 17.3528 69.153 12.6978C77.717 7.73983 96.655 14.8088 116.616 32.5328C117.918 33.6912 119.198 34.873 120.457 36.0778C113.019 44.0648 105.67 53.1578 98.649 63.0658C86.609 64.1818 75.084 65.9738 64.488 68.3748C63.835 65.7611 63.2482 63.1302 62.728 60.4868ZM173.155 87.7558C170.652 83.4328 168.057 79.1641 165.37 74.9528C173.538 75.9858 181.364 77.3568 188.713 79.0328C186.507 86.1048 183.757 93.4978 180.52 101.078C178.154 96.5886 175.698 92.147 173.155 87.7558ZM128.123 43.8948C133.167 49.3598 138.219 55.4608 143.188 62.0808C133.108 61.6047 123.011 61.6027 112.931 62.0748C117.905 55.5158 123 49.4228 128.123 43.8948ZM82.802 87.8298C80.2903 92.1856 77.8806 96.5995 75.575 101.068C72.391 93.5148 69.666 86.0878 67.441 78.9158C74.745 77.2818 82.534 75.9458 90.65 74.9318C87.9336 79.1689 85.3168 83.4701 82.802 87.8298ZM90.883 153.181C82.498 152.245 74.592 150.978 67.29 149.388C69.55 142.088 72.335 134.503 75.588 126.788C77.9028 131.259 80.3224 135.676 82.845 140.034C85.439 144.514 88.125 148.902 90.883 153.181ZM128.425 184.211C123.241 178.619 118.071 172.432 113.022 165.778C117.924 165.97 122.921 166.068 128 166.068C133.218 166.068 138.376 165.951 143.453 165.725C138.468 172.499 133.435 178.695 128.425 184.211ZM180.623 126.394C184.045 134.194 186.929 141.739 189.219 148.914C181.797 150.608 173.783 151.972 165.339 152.985C168.045 148.695 170.665 144.353 173.198 139.959C175.773 135.493 178.249 130.97 180.623 126.394ZM163.725 134.495C159.847 141.231 155.751 147.84 151.444 154.31C143.642 154.863 135.822 155.137 128 155.133C120.033 155.133 112.284 154.885 104.822 154.401C100.402 147.946 96.2281 141.326 92.309 134.555C88.4078 127.82 84.7652 120.939 81.387 113.928C84.7567 106.915 88.3893 100.031 92.277 93.2908L92.276 93.2918C96.1617 86.5499 100.302 79.9581 104.689 73.5308C112.302 72.9548 120.109 72.6548 127.999 72.6548C135.925 72.6548 143.743 72.9578 151.354 73.5378C155.696 79.9555 159.811 86.5246 163.689 93.2328C167.589 99.9582 171.27 106.808 174.725 113.773C171.305 120.808 167.636 127.72 163.725 134.495ZM186.285 12.3708C194.857 17.3148 198.191 37.2518 192.805 63.3968C192.46 65.0662 192.076 66.7628 191.655 68.4868C181.033 66.0348 169.5 64.2118 157.425 63.0788C150.391 53.0618 143.102 43.9548 135.785 36.0708C137.703 34.2224 139.666 32.4218 141.673 30.6708C160.573 14.2238 178.237 7.72983 186.285 12.3708ZM128 90.8078C140.625 90.8078 150.86 101.043 150.86 113.668C150.86 126.293 140.625 136.528 128 136.528C115.375 136.528 105.14 126.293 105.14 113.668C105.14 101.043 115.375 90.8078 128 90.8078Z" fill="#00D8FF"/>
</svg>
