<svg width="512" height="512" viewBox="0 0 512 512" fill="none" xmlns="http://www.w3.org/2000/svg">
<path d="M16 256C16 303.2 29.6 347.2 52.8 384H458.4C481.6 347.2 495.2 303.2 495.2 256C495.2 208.8 481.6 164.8 458.4 128H52.8C29.6 164.8 16 208.8 16 256Z" fill="#FFCE31"/>
<path d="M459.2 128C416.8 60.8 341.6 16 256 16C170.4 16 95.2001 60.8 52.8 128H459.2ZM52.8 384C95.2001 451.2 170.4 496 256 496C341.6 496 416.8 451.2 459.2 384H52.8Z" fill="#ED4C5C"/>
<path d="M73.6001 229.6H99.2001V244H73.6001V229.6ZM73.6001 335.2H100V348.8H73.6001V335.2Z" fill="#C8B100"/>
<path d="M71.2 312.8C68.8 314.4 67.2 316 67.2 316.8C67.2 317.6 68 318.4 69.6 319.2C71.2 320 72.8 321.6 72 323.2C73.6 321.6 74.4 320 74.4 318.4C74.4 316 72.8 313.6 71.2 312.8Z" fill="#ED4C5C"/>
<path d="M77.6001 244H96.0001V335.2H77.6001V244Z" fill="white"/>
<path d="M115.2 277.6C111.2 276 104 274.4 96 274.4C93.6 274.4 90.4 274.4 87.2 275.2C76 276.8 67.2 281.6 68 284.8L64 276C63.2 272 72.8 267.2 84.8 264.8C88.8 264 92.8 264 96 264C104 264 111.2 264.8 115.2 266.4V277.6Z" fill="#ED4C5C"/>
<path d="M77.6 289.6C72.8 289.6 68.8 288 68.8 285.6C68.8 284 70.4 281.6 73.6 280H78.4L77.6 289.6ZM96 282.4C99.2 283.2 101.6 284 103.2 284.8C104 285.6 100.8 288.8 96 291.2V282.4Z" fill="#ED4C5C"/>
<path d="M65.5999 307.2C64.7999 305.6 70.3999 302.4 77.5999 300C80.7999 299.2 83.1999 297.6 87.1999 296C96.7999 292 104.8 286.4 103.2 284.8L104.8 294.4C105.6 296 99.1999 300.8 89.5999 305.6C86.3999 307.2 80.7999 309.6 77.5999 310.4C71.9999 312 67.1999 315.2 67.1999 316L65.5999 307.2Z" fill="#ED4C5C"/>
<path d="M245.6 229.6H271.2V244H245.6V229.6ZM244.8 335.2H271.2V348.8H244.8V335.2Z" fill="#C8B100"/>
<path d="M273.6 312.8C276 314.4 277.6 316 277.6 316.8C277.6 317.6 276.8 318.4 275.2 319.2C273.6 320.8 272 323.2 272.8 324C271.2 322.4 270.4 320.8 270.4 319.2C270.4 316 272 313.6 273.6 312.8Z" fill="#ED4C5C"/>
<path d="M248.8 244H267.2V335.2H248.8V244Z" fill="white"/>
<path d="M229.6 277.6C233.6 276 240.8 274.4 248.8 274.4C251.2 274.4 254.4 274.4 257.6 275.2C268.8 276.8 277.6 281.6 276.8 284.8L280.8 275.2C281.6 271.2 272 266.4 260 264H248.8C240.8 264 233.6 264.8 229.6 266.4V277.6Z" fill="#ED4C5C"/>
<path d="M267.2 289.6C272 289.6 276 288 276 285.6C276 284 274.4 281.6 271.2 280H266.4L267.2 289.6ZM248.8 282.4C245.6 283.2 243.2 284 241.6 284.8C240.8 285.6 244 288.8 248.8 291.2V282.4Z" fill="#ED4C5C"/>
<path d="M279.2 307.2C280 305.6 274.4 302.4 267.2 300C264 299.2 261.6 297.6 257.6 296C248 292 240 286.4 241.6 284.8L240 294.4C239.2 296 245.6 300.8 255.2 305.6C258.4 307.2 264 309.6 267.2 310.4C272.8 312 277.6 316 276.8 316.8L279.2 307.2ZM172 178.4C187.2 178.4 218.4 181.6 229.6 192.8C217.6 221.6 198.4 209.6 172 209.6C146.4 209.6 126.4 221.6 114.4 192.8C125.6 181.6 156 178.4 172 178.4Z" fill="#ED4C5C"/>
<path d="M211.2 210.4C201.6 204.8 187.2 204 172 204C156.8 204 142.4 205.6 132.8 210.4L136 224C144.8 226.4 157.6 228 172 228C186.4 228 198.4 226.4 208 224L211.2 210.4ZM224.8 176C221.6 173.6 215.2 171.2 209.6 171.2C207.2 171.2 204.8 171.2 202.4 172C202.4 172 197.6 165.6 186.4 165.6C182.4 165.6 179.2 166.4 176 168V167.2C175.2 165.6 173.6 164 172 164C170.4 164 168 166.4 168 168V168.8C164.8 167.2 161.6 166.4 157.6 166.4C146.4 166.4 141.6 173.6 141.6 172.8C139.2 172 136.8 172 134.4 172C97.5999 172 116 196.8 116 196.8L120 192C111.2 180.8 119.2 174.4 135.2 174.4C137.6 174.4 139.2 174.4 140.8 175.2C135.2 183.2 145.6 190.4 145.6 190.4L148 186.4C142.4 182.4 141.6 168.8 157.6 168.8C161.6 168.8 164.8 169.6 168 172C168 172.8 167.2 184 166.4 185.6L172.8 191.2L179.2 185.6C178.4 183.2 177.6 172.8 177.6 172C180 170.4 184 168.8 188 168.8C204.8 168.8 204.8 182.4 197.6 186.4L200 190.4C200 190.4 208.8 183.2 204.8 175.2C206.4 175.2 208.8 174.4 210.4 174.4C229.6 174.4 230.4 188.8 225.6 192L228.8 196.8C227.2 196.8 236 185.6 224.8 176Z" fill="#C8B100"/>
<path d="M167.2 160.8C167.2 158.4 169.6 156 172 156C175.2 156 176.8 158.4 176.8 160.8C176.8 163.2 174.4 165.6 172 165.6C169.6 165.6 167.2 163.2 167.2 160.8Z" fill="#005BBF"/>
<path d="M170.4 147.2V149.6H168V152H170.4V160H167.2V162.4H176.8L177.6 160.8L176.8 160H173.6V152H176V149.6H173.6V147.2H170.4Z" fill="#C8B100"/>
<path d="M172 226.4C159.2 226.4 148 224.8 139.2 222.4C148 220 159.2 218.4 172 218.4C184.8 218.4 196 220 204.8 222.4C196.8 224.8 184.8 226.4 172 226.4Z" fill="#ED4C5C"/>
<path d="M172.8 364.8C157.6 364.8 143.2 360.8 130.4 355.2C120.8 350.4 115.2 341.6 115.2 331.2V292.8H230.4V331.2C230.4 341.6 224 351.2 215.2 355.2C202.4 361.6 188 364.8 172.8 364.8ZM172 228.8H229.6V292.8H172V228.8Z" fill="white"/>
<path d="M172.8 331.2C172.8 346.4 160 358.4 144 358.4C128 358.4 115.2 346.4 115.2 331.2V292.8H172.8V331.2Z" fill="#ED4C5C"/>
<path d="M127.2 353.6C128.8 354.4 131.2 356 134.4 356.8V291.2H128L127.2 353.6ZM114.4 330.4C114.4 338.4 117.6 344.8 120.8 348V291.2H114.4V330.4Z" fill="#C8B100"/>
<path d="M140 358.4H146.4V291.2H140V358.4Z" fill="#C7B500"/>
<path d="M152.8 356.8C155.2 356 158.4 354.4 160 353.6V291.2H153.6L152.8 356.8Z" fill="#C8B100"/>
<path d="M114.4 228.8H172V292.8H114.4V228.8Z" fill="#ED4C5C"/>
<path d="M166.4 348C169.6 345.6 172 340 172.8 333.6V292H166.4V348Z" fill="#C8B100"/>
<path d="M230.4 292.8V331.2C230.4 346.4 217.6 358.4 201.6 358.4C185.6 358.4 172.8 346.4 172.8 331.2V292.8H230.4ZM209.6 240C212 244.8 212 256.8 204.8 254.4C206.4 255.2 207.2 260.8 209.6 264C213.6 268.8 218.4 264.8 217.6 259.2C216 250.4 216.8 244.8 218.4 236C218.4 236.8 222.4 236.8 224 235.2C223.2 237.6 222.4 240.8 224 240.8C222.4 243.2 218.4 247.2 217.6 249.6C216.8 255.2 225.6 265.6 216 268C209.6 269.6 213.6 274.4 216 276.8C216 276.8 212.8 287.2 214.4 286.4C208 288.8 209.6 283.2 209.6 283.2C212.8 273.6 204 272.8 204.8 271.2C196.8 270.4 205.6 278.4 198.4 278.4C196.8 278.4 193.6 280 193.6 280C184.8 279.2 189.6 271.2 192.8 272C195.2 272.8 197.6 276.8 197.6 271.2C197.6 271.2 193.6 264.8 204 264.8C200 264.8 197.6 261.6 196 257.6C194.4 258.4 192 262.4 183.2 263.2C183.2 263.2 180.8 254.4 183.2 256C186.4 257.6 188 257.6 191.2 254.4C189.6 252 180 248.8 181.6 243.2C181.6 241.6 186.4 239.2 186.4 239.2C185.6 243.2 188 247.2 192.8 247.2C199.2 248 196.8 245.6 197.6 244C198.4 242.4 203.2 244.8 201.6 240.8C201.6 240 196 239.2 197.6 236.8C200.8 232.8 205.6 236 209.6 240ZM172.8 356.8L171.2 352.8L172.8 348L174.4 352.8L172.8 356.8Z" fill="#ED4C5C"/>
<path d="M132 242.4V246.4H133.6V249.6H129.6V257.6H132V275.2H127.2V284H160V275.2H156V257.6H157.6V249.6H153.6V246.4H156V242.4H148V246.4H149.6V249.6H145.6V240H148V236H139.2V240H141.6V249.6H137.6V246.4H139.2V242.4H132ZM222.4 340.8V300.8H180.8V340.8L200 349.6H202.4L222.4 340.8ZM200 304V317.6L186.4 304H200ZM183.2 304.8L199.2 320.8L183.2 336.8V304.8ZM184.8 340L200 324.8V347.2L184.8 340ZM202.4 346.4V324L217.6 339.2L202.4 346.4ZM219.2 336.8L203.2 320.8L219.2 304.8V336.8ZM202.4 304H216L202.4 317.6V304Z" fill="#C8B100"/>
<path d="M153.6 292C153.6 280 161.6 271.2 172 271.2C182.4 271.2 190.4 280.8 190.4 292C190.4 303.2 182.4 312.8 172 312.8C161.6 312.8 153.6 304 153.6 292Z" fill="#ED4C5C"/>
<path d="M159.2 292C159.2 283.2 164.8 276.8 172 276.8C179.2 276.8 184.8 284 184.8 292C184.8 300.8 179.2 307.2 172 307.2C165.6 308 159.2 300.8 159.2 292Z" fill="#005BBF"/>
<path d="M166.4 281.6L163.2 290.4L165.6 291.2L164 294.4H168.8L167.2 291.2L169.6 290.4L166.4 281.6ZM178.4 281.6L175.2 290.4L177.6 291.2L176 294.4H180.8L180 291.2L182.4 290.4L178.4 281.6ZM172.8 292L168.8 300.8L171.2 301.6L170.4 304.8H174.4L173.6 301.6L176 300.8L172.8 292Z" fill="#C8B100"/>
</svg>
