<?xml version="1.0" standalone="no"?>
<!DOCTYPE svg PUBLIC "-//W3C//DTD SVG 20010904//EN" "http://www.w3.org/TR/2001/REC-SVG-20010904/DTD/svg10.dtd">
<svg version="1.0" xmlns="http://www.w3.org/2000/svg" width="474.000000pt" height="508.000000pt" viewBox="0 0 474.000000 508.000000" preserveAspectRatio="xMidYMid meet">
	<g transform="translate(0.000000,508.000000) scale(0.100000,-0.100000)" fill="#000000" stroke="none">
		<path d="M2328 5071 c-1 -5 -113 -48 -248 -96 -465 -164 -865 -307 -920 -327
-30 -11 -224 -80 -430 -153 -206 -73 -455 -162 -552 -196 l-178 -64 0 -52 c0
-28 4 -54 9 -57 4 -3 11 -34 14 -68 8 -79 91 -801 112 -968 8 -69 38 -323 65
-565 27 -242 54 -477 60 -522 23 -191 32 -263 65 -555 19 -168 35 -313 35
-321 0 -14 68 -52 1000 -567 860 -475 967 -535 993 -553 13 -9 21 -9 35 0 22
15 185 107 482 271 485 267 921 508 1090 602 96 53 230 127 296 164 l121 66
10 88 c141 1237 339 2918 345 2920 4 2 8 29 8 60 l0 57 -402 143 c-222 79
-432 154 -468 167 -36 13 -333 119 -660 235 -327 116 -624 222 -660 235 -36
13 -82 29 -102 36 -21 7 -38 17 -38 21 0 11 -78 10 -82 -1z m104 -688 c31 -71
214 -483 408 -918 194 -434 397 -889 450 -1010 54 -121 199 -449 324 -728 124
-279 226 -512 226 -517 0 -6 -104 -10 -273 -10 l-273 0 -149 371 -150 370
-625 0 c-490 -1 -627 -4 -633 -13 -5 -7 -73 -173 -151 -368 l-143 -355 -277
-3 c-152 -1 -276 0 -276 3 0 2 95 217 211 477 117 260 229 511 249 558 20 47
57 130 83 185 25 55 141 314 257 575 117 261 262 585 322 720 60 135 164 368
230 518 67 149 124 272 128 272 3 0 31 -57 62 -127z" />
		<path d="M2338 3363 c-24 -60 -144 -349 -227 -548 -134 -318 -171 -407 -171
-411 0 -2 194 -4 430 -4 237 0 430 2 430 4 0 2 -37 91 -81 197 -87 207 -164
392 -275 661 -38 93 -71 168 -74 168 -3 0 -18 -30 -32 -67z" />
	</g>
</svg>
