<svg width="256" height="256" viewBox="0 0 256 256" fill="none" xmlns="http://www.w3.org/2000/svg">
<path d="M74.9348 66.7424C74.9348 72.3196 77.1503 77.6683 81.0939 81.6119C85.0376 85.5555 90.3863 87.771 95.9634 87.771C101.541 87.771 106.889 85.5555 110.833 81.6119C114.776 77.6683 116.992 72.3196 116.992 66.7424C116.992 61.1653 114.776 55.8166 110.833 51.873C106.889 47.9294 101.541 45.7139 95.9634 45.7139C90.3863 45.7139 85.0376 47.9294 81.0939 51.873C77.1503 55.8166 74.9348 61.1653 74.9348 66.7424Z" stroke="#111111" stroke-width="18.2857" stroke-linecap="round" stroke-linejoin="round"/>
<path d="M64 108.617C67.1703 102.452 71.8665 97.2018 77.6411 93.3665C83.2366 89.7093 89.5634 87.8076 95.9817 87.8076C102.4 87.8076 108.727 89.7093 114.322 93.3665C119.936 97.0053 124.617 102.253 127.963 108.617" stroke="#111111" stroke-width="18.2857" stroke-linecap="round" stroke-linejoin="round"/>
<path d="M228.571 228.571C228.571 233.421 226.645 238.072 223.216 241.501C219.786 244.93 215.135 246.857 210.286 246.857H45.7143C40.8646 246.857 36.2136 244.93 32.7843 241.501C29.3551 238.072 27.4286 233.421 27.4286 228.571V27.4283C27.4286 22.5786 29.3551 17.9276 32.7843 14.4983C36.2136 11.0691 40.8646 9.14258 45.7143 9.14258H164.571L228.571 73.1426V228.571Z" stroke="#111111" stroke-width="18.2857" stroke-linecap="round" stroke-linejoin="round"/>
<path d="M64 155.429H192M64 201.143H137.143" stroke="#111111" stroke-width="18.2857" stroke-linecap="round"/>
</svg>
