<svg width="133" height="133" viewBox="0 0 133 133" fill="none" xmlns="http://www.w3.org/2000/svg">
<path d="M102.11 0H5.51946C2.48373 0 0 2.48373 0 5.51946V126.947C0 129.983 2.48373 132.467 5.51946 132.467H126.947C129.983 132.467 132.467 129.983 132.467 126.947V30.357L102.11 0Z" fill="#F2F2F2"/>
<path d="M102.11 24.8376C102.11 27.8733 104.593 30.357 107.629 30.357H132.467L102.11 0V24.8376Z" fill="#CDD6E0"/>
<path d="M27.5965 22.9199C27.2677 21.2759 26.3953 20.0642 25.648 20.2137C24.9006 20.3632 24.5613 21.8171 24.89 23.4612C25.2188 25.1052 26.0912 26.3168 26.8386 26.1674C27.5859 26.0179 27.9253 24.564 27.5965 22.9199Z" fill="#F8B64C"/>
<path d="M46.8953 20.2014C46.1479 20.052 45.2755 21.2636 44.9467 22.9077C44.6179 24.5517 44.9573 26.0056 45.7046 26.1551C46.452 26.3046 47.3244 25.0929 47.6532 23.4489C47.9819 21.8048 47.6426 20.3509 46.8953 20.2014Z" fill="#F8B64C"/>
<path d="M61.5417 58.2301H11.0388C11.0388 58.2301 11.8668 47.7431 15.1783 43.0517C15.1783 43.0517 15.1783 43.0517 15.4543 42.7757C17.386 41.9477 25.6652 38.912 29.5289 35.8765L29.8049 33.9448C29.8049 33.9448 31.4606 37.2565 34.7724 37.5325H35.8764H36.9804C40.5681 36.9805 41.9478 33.9448 41.9478 33.9448L42.2238 35.8765C46.0876 38.9122 54.3667 41.948 56.2985 42.7757C56.5745 42.7757 56.5745 43.0517 56.5745 43.0517C60.7139 47.7431 61.5417 58.2301 61.5417 58.2301Z" fill="#CDD6E0"/>
<path d="M42.4996 34.2205C42.4996 34.2205 40.8439 37.5322 37.5321 37.8082C37.2561 37.8082 36.7041 37.8082 36.4281 37.8082C36.1521 37.8082 35.6001 37.8082 35.3241 37.8082C31.7364 37.2562 30.3567 34.2205 30.3567 34.2205C30.3567 34.2205 30.3567 33.6685 30.3567 32.8408C30.3567 32.5648 30.3567 32.0128 30.3567 31.7368C33.3924 35.3245 36.4281 35.8762 36.4281 35.8762C36.4281 35.8762 39.7399 35.3242 42.4996 31.7368V32.8408V34.2205Z" fill="#F8B64C"/>
<path d="M46.6394 20.1461C46.6394 20.6981 46.3634 21.2501 46.3634 21.2501C44.4317 34.7727 36.1525 36.1525 36.1525 36.1525C36.1525 36.1525 27.5973 34.7727 25.9416 21.2501C25.9416 21.2501 25.9416 20.9741 25.6656 20.1461C25.1136 16.8344 24.8376 6.34745 36.1525 6.62345C47.4672 6.62345 47.1914 16.8344 46.6394 20.1461Z" fill="#FFD15C"/>
<path d="M44.4316 37.2562L40.5678 44.7074L38.3601 41.1199L38.9121 40.568L40.8438 43.3277L43.8796 36.9802L44.4316 37.2562Z" fill="#ACB3BA"/>
<path d="M27.8733 37.2562L31.7368 44.7074L34.2205 41.1199L33.6687 40.568L31.7368 43.3277L28.425 36.9802L27.8733 37.2562Z" fill="#ACB3BA"/>
<path d="M46.6394 20.1461L46.3634 20.6981C46.3634 20.6981 45.8114 15.1786 43.3277 11.5909C43.3277 11.5909 41.672 13.7986 36.1525 13.7986C30.6331 13.7986 28.9773 11.5909 28.9773 11.5909C26.7696 15.1786 26.2176 20.6981 26.2176 20.6981L25.6656 20.1461C25.1136 16.8344 24.8376 6.34745 36.1525 6.62345C47.4672 6.62345 47.1914 16.8344 46.6394 20.1461Z" fill="#334A5E"/>
<path d="M37.2561 42.2237L38.6358 55.4703L36.1521 57.9541L33.6683 55.4703L35.0481 42.2237L33.3923 40.292L34.7721 37.8082H35.8761H36.9801L38.3598 40.292L37.2561 42.2237Z" fill="white"/>
<path d="M73.9607 51.6068H122.256V57.9543H73.9607V51.6068Z" fill="#FF7058"/>
<path d="M11.0388 72.8567H122.256V79.2041H11.0388V72.8567Z" fill="#CDD6E0"/>
<path d="M11.0388 93.8306H121.98V100.178H11.0388V93.8306Z" fill="#CDD6E0"/>
<path d="M11.0388 114.805H82.7915V121.152H11.0388V114.805Z" fill="#4CDBC4"/>
</svg>
