<svg width="256" height="256" viewBox="0 0 256 256" fill="none" xmlns="http://www.w3.org/2000/svg">
<path d="M196 0H60C26.8629 0 0 26.8629 0 60V196C0 229.137 26.8629 256 60 256H196C229.137 256 256 229.137 256 196V60C256 26.8629 229.137 0 196 0Z" fill="#512BD4"/>
<path d="M24.052 168.943C21.8153 168.943 19.9143 168.212 18.349 166.749C16.783 165.248 16 163.466 16 161.402C16 159.301 16.783 157.5 18.349 155.999C19.9143 154.499 21.8153 153.749 24.052 153.748C26.326 153.748 28.246 154.498 29.812 155.999C31.4147 157.5 32.216 159.301 32.216 161.402C32.216 163.466 31.4147 165.248 29.812 166.749C28.246 168.212 26.326 168.943 24.052 168.943ZM113.467 167.705H98.929L60.625 108.387C59.6703 106.913 58.865 105.348 58.221 103.715H57.885C58.183 105.442 58.332 109.137 58.332 114.802V167.705H45.471V87H60.96L97.978 144.912C99.544 147.313 100.551 148.964 100.998 149.865H101.221C100.848 147.726 100.662 144.105 100.662 139.002V87H113.467V167.705ZM176.098 167.705H131.084V87H174.309V98.369H144.393V121.218H171.961V132.53H144.393V156.393H176.098V167.705ZM240.071 98.369H217.033V167.705H203.724V98.369H180.742V87H240.071V98.369Z" fill="white"/>
</svg>
