<svg width="171" height="256" viewBox="0 0 171 256" fill="none" xmlns="http://www.w3.org/2000/svg">
<g clip-path="url(#clip0_682_97)">
<path d="M42.6667 256C66.2187 256 85.3333 236.886 85.3333 213.334V170.667H42.6667C19.1147 170.667 0 189.782 0 213.334C0 236.886 19.1147 256 42.6667 256Z" fill="#0ACF83"/>
<path d="M0 128C0 104.448 19.1147 85.333 42.6667 85.333H85.3333V170.666H42.6667C19.1147 170.666 0 151.552 0 128Z" fill="#A259FF"/>
<path d="M0 42.6667C0 19.1147 19.1147 0 42.6667 0H85.3333V85.3333H42.6667C19.1147 85.3333 0 66.2187 0 42.6667Z" fill="#F24E1E"/>
<path d="M85.3334 0H128C151.552 0 170.667 19.1147 170.667 42.6667C170.667 66.2187 151.552 85.3333 128 85.3333H85.3334V0Z" fill="#FF7262"/>
<path d="M170.667 128C170.667 151.552 151.552 170.666 128 170.666C104.448 170.666 85.3334 151.552 85.3334 128C85.3334 104.448 104.448 85.333 128 85.333C151.552 85.333 170.667 104.448 170.667 128Z" fill="#1ABCFE"/>
</g>
<defs>
<clipPath id="clip0_682_97">
<rect width="170.667" height="256" fill="white"/>
</clipPath>
</defs>
</svg>
