<svg width="256" height="256" viewBox="0 0 256 256" fill="none" xmlns="http://www.w3.org/2000/svg">
<g clip-path="url(#clip0_682_103)">
<path d="M196 0H60C26.8629 0 0 26.8629 0 60V196C0 229.137 26.8629 256 60 256H196C229.137 256 256 229.137 256 196V60C256 26.8629 229.137 0 196 0Z" fill="#F03C2E"/>
<mask id="mask0_682_103" style="mask-type:luminance" maskUnits="userSpaceOnUse" x="28" y="28" width="200" height="200">
<path d="M28 28H228V228H28V28Z" fill="white"/>
</mask>
<g mask="url(#mask0_682_103)">
<path d="M224.225 119.094L136.906 31.7745C135.106 29.9722 132.811 28.7447 130.312 28.2475C127.814 27.7503 125.224 28.0058 122.871 28.9815C121.309 29.6297 119.89 30.5787 118.694 31.7745L100.569 49.8995L123.569 72.8995C128.919 71.0245 135.044 72.3055 139.306 76.5685C141.335 78.6011 142.752 81.1634 143.394 83.9628C144.036 86.7622 143.878 89.6858 142.937 92.3995L165.106 114.569C170.469 112.719 176.656 113.912 180.937 118.206C183.082 120.349 184.542 123.081 185.133 126.054C185.724 129.028 185.42 132.111 184.258 134.912C182.701 138.666 179.716 141.649 175.96 143.204C172.204 144.76 167.985 144.76 164.229 143.205C162.369 142.434 160.679 141.305 159.256 139.881C154.756 135.381 153.644 128.756 155.919 123.212L135.244 102.537V156.944C136.745 157.686 138.116 158.665 139.306 159.844C142.18 162.718 143.795 166.616 143.795 170.681C143.795 174.746 142.18 178.644 139.306 181.519C136.432 184.393 132.533 186.008 128.469 186.008C124.404 186.008 120.505 184.393 117.631 181.519C115.486 179.376 114.025 176.645 113.433 173.671C112.841 170.698 113.144 167.615 114.305 164.815C115.076 162.955 116.206 161.266 117.631 159.844C119.112 158.368 120.756 157.25 122.65 156.5V101.587C120.771 100.819 119.064 99.6819 117.631 98.2435C115.479 96.0938 114.016 93.3521 113.428 90.3677C112.841 87.3834 113.155 84.2916 114.331 81.4865L91.644 58.8135L31.769 118.626C29.9665 120.427 28.7388 122.722 28.2413 125.221C27.7438 127.721 27.9988 130.311 28.974 132.666C29.6226 134.228 30.5723 135.648 31.769 136.845L119.094 224.157C120.29 225.352 121.709 226.301 123.271 226.95C126.427 228.255 129.973 228.255 133.129 226.95C134.691 226.301 136.11 225.352 137.306 224.157L224.225 137.376C225.422 136.18 226.371 134.76 227.019 133.197C227.667 131.634 228.001 129.958 228.001 128.267C228.001 126.574 227.667 124.899 227.019 123.336C226.372 121.773 225.422 120.353 224.225 119.157" fill="white"/>
</g>
</g>
<defs>
<clipPath id="clip0_682_103">
<rect width="256" height="256" fill="white"/>
</clipPath>
</defs>
</svg>
