<svg width="133" height="134" viewBox="0 0 133 134" fill="none" xmlns="http://www.w3.org/2000/svg">
<path fill-rule="evenodd" clip-rule="evenodd" d="M83.1574 118.744C91.1392 116.137 98.4728 111.664 104.53 105.627C114.687 95.4384 120.414 81.6337 120.414 67.2541C120.414 52.8744 114.687 39.0697 104.53 28.881C94.3409 18.7234 80.5334 12.9963 66.1566 12.9963C62.828 12.9963 60.1279 10.2962 60.1279 6.96767C60.1279 3.63909 62.828 0.939026 66.1566 0.939026C83.7295 0.939026 100.609 7.93157 113.058 20.3524C125.479 32.8015 132.472 49.6811 132.472 67.2541C132.472 84.827 125.479 101.707 113.058 114.156C100.609 126.577 83.7295 133.569 66.1566 133.569C49.4263 133.569 33.2992 127.239 21.0334 115.875C8.7647 104.48 1.2592 88.8658 0.0219057 72.1976C-0.226117 68.869 2.26538 65.9717 5.58268 65.7321C8.9028 65.4897 11.8002 67.9812 12.0482 71.2929C13.0741 84.9482 19.1929 97.7298 29.2322 107.042C36.4869 113.778 45.3988 118.335 54.9561 120.32C54.9533 116.174 54.9476 112.572 54.942 111.529C40.1029 114.849 37.5804 104.159 37.5804 104.159C35.1537 97.8088 31.6561 96.1149 31.6561 96.1149C26.814 92.7074 32.0196 92.775 32.0196 92.775C37.3747 93.1611 40.1959 98.4429 40.1959 98.4429C44.9535 106.842 52.008 104.421 55.0463 103.014C55.531 99.4632 56.4583 97.0309 57.9803 95.6583C46.1344 94.2716 35.2355 89.5535 35.2355 68.4914C35.2355 62.4937 35.7597 57.584 39.17 53.7453C38.6204 52.3558 36.7828 46.7668 39.6886 39.2021C44.79 38.9626 49.2967 44.5459 53.8372 46.6823C58.7159 45.2618 64.4683 44.6671 68.8904 44.7066C73.3633 44.746 79.3159 45.4365 83.4308 46.6823C86.8636 44.2725 92.1144 38.8865 97.6921 39.081L98.5517 39.2021C101.463 46.7668 99.6255 52.3558 99.0787 53.7453C102.498 57.584 102.878 62.4937 102.878 68.4914C102.878 89.6099 91.2491 94.2603 79.3666 95.6188C81.2803 97.3183 83.1771 100.672 83.1771 105.799C83.1771 108.059 83.1658 113.141 83.1574 118.744ZM40.9259 19.2053C43.8712 17.658 45.007 14.0109 43.4597 11.0657C41.9124 8.12323 38.2653 6.98739 35.32 8.53472C22.7808 15.1355 12.6513 25.5947 6.47331 38.3453C5.00772 41.3413 6.25065 44.9546 9.24665 46.4089C12.2398 47.866 15.8615 46.6175 17.3243 43.6215C22.389 33.1622 30.6471 24.6308 40.9259 19.2053Z" fill="url(#paint0_linear_208_1215)"/>
<defs>
<linearGradient id="paint0_linear_208_1215" x1="88.9974" y1="3.66723" x2="55.8494" y2="128.265" gradientUnits="userSpaceOnUse">
<stop stop-color="#1A6CFF"/>
<stop offset="1" stop-color="#C522FF"/>
</linearGradient>
</defs>
</svg>
