<svg width="256" height="209" viewBox="0 0 256 209" fill="none" xmlns="http://www.w3.org/2000/svg">
<path d="M224.999 0.00309524C218.079 -0.0992775 202.003 2.25008 175.162 20.2141C160.534 16.5581 144.969 14.7539 129.378 14.7539C112.223 14.7539 94.887 16.9323 78.72 21.3673C40.1847 -4.92164 23.1756 0.465753 23.1756 0.465753C12.0714 28.2342 18.9333 48.7932 21.0189 53.8991C7.96756 67.9848 0 85.9718 0 108.017C0 124.66 1.89421 139.587 6.52204 152.563C6.7787 153.564 6.69551 153.341 7.12794 154.199C8.14749 156.885 9.2811 159.492 10.5552 162.011C10.9918 162.917 11.3892 163.587 11.3892 163.587C24.3985 187.837 50.044 203.502 95.6735 208.42L164.685 208.499C213.347 203.673 236.698 187.962 247.458 163.548L248.142 161.958C249.162 159.492 250.051 156.926 252.482 148.289C254.912 139.651 256 124.693 256 108.01C256 84.0838 247.014 64.9391 232.421 50.374C234.971 42.1425 238.377 23.8618 229.019 0.459081C229.019 0.459081 227.707 0.0431269 224.999 0.00288674L224.999 0.00309524ZM170.614 87.8055C181.851 87.7812 191.476 89.7104 198.703 97.292V97.2985C207.745 106.794 213.037 118.258 213.037 130.612C213.037 188.295 175.938 189.864 130.179 189.864C84.4127 189.864 47.3221 181.871 47.3221 130.612C47.3221 118.34 52.5364 106.944 61.4672 97.4874C76.3646 81.727 101.575 90.0728 130.18 90.0728C144.863 90.0705 158.653 87.8314 170.615 87.8053L170.614 87.8055ZM85.3787 104.791C75.8574 104.791 68.1385 117.664 68.1385 133.551C68.1385 149.44 75.8569 162.317 85.3787 162.317C94.8999 162.317 102.619 149.44 102.619 133.551C102.619 117.667 94.9004 104.803 85.3787 104.791ZM177.879 104.791C168.357 104.791 160.639 117.664 160.639 133.551C160.639 149.44 168.357 162.317 177.879 162.317C187.4 162.317 195.119 149.44 195.119 133.551C195.119 117.667 187.4 104.803 177.879 104.791Z" fill="#242222"/>
</svg>
