<svg width="272" height="256" viewBox="0 0 272 256" fill="none" xmlns="http://www.w3.org/2000/svg">
<path d="M265.25 6.50953C265.25 6.92253 265.697 7.15753 266.764 7.55753C267.816 7.95153 269.25 8.48853 269.25 10.0095V10.0115C269.248 10.3628 269.171 10.7097 269.026 11.0295C268.883 11.3506 268.675 11.6379 268.414 11.873C268.153 12.108 267.845 12.2854 267.511 12.3935C267.181 12.5035 266.824 12.5435 266.476 12.5085C266.405 12.5164 266.334 12.5204 266.262 12.5205C265.643 12.5184 265.047 12.2868 264.589 11.8705C264.328 11.6362 264.118 11.3497 263.974 11.0296C263.829 10.7094 263.753 10.3627 263.751 10.0115C263.751 9.80953 263.829 9.62153 263.971 9.47953C264.114 9.34349 264.304 9.26763 264.502 9.26763C264.699 9.26763 264.889 9.34349 265.032 9.47953C265.174 9.62053 265.252 9.80953 265.252 10.0095C265.252 10.9615 266.293 11.0095 266.502 11.0095C266.711 11.0095 267.752 10.9615 267.752 10.0095C267.752 9.59653 267.305 9.36153 266.238 8.96153C265.186 8.56753 263.752 8.03153 263.752 6.50953C263.755 6.15153 263.83 5.81153 263.976 5.48953C264.12 5.16953 264.327 4.88453 264.59 4.64953C264.85 4.41386 265.157 4.23566 265.491 4.12653C265.825 4.01846 266.177 3.979 266.526 4.01053C266.86 3.97991 267.196 4.01943 267.513 4.12653C268.014 4.29333 268.451 4.61233 268.763 5.03911C269.074 5.46588 269.245 5.97919 269.251 6.50753C269.251 6.70953 269.173 6.89753 269.031 7.03953C268.888 7.17558 268.698 7.25144 268.501 7.25144C268.303 7.25144 268.113 7.17558 267.97 7.03953C267.9 6.97029 267.844 6.88774 267.807 6.79673C267.769 6.70571 267.75 6.60807 267.75 6.50953C267.75 5.55753 266.709 5.50953 266.5 5.50953C266.291 5.50953 265.25 5.55753 265.25 6.50953ZM258.25 4.00953H262.75C262.898 4.00918 263.044 4.05296 263.167 4.1353C263.291 4.21764 263.387 4.33483 263.444 4.47199C263.501 4.60915 263.515 4.7601 263.486 4.90566C263.457 5.05122 263.385 5.18483 263.28 5.28953C263.211 5.35964 263.128 5.41522 263.037 5.453C262.946 5.49078 262.849 5.51 262.75 5.50953H261.25V11.7595C261.25 11.908 261.207 12.0532 261.124 12.1767C261.042 12.3002 260.925 12.3965 260.788 12.4533C260.65 12.5101 260.499 12.5249 260.354 12.4957C260.208 12.4665 260.075 12.3948 259.97 12.2895C259.9 12.2203 259.844 12.1377 259.807 12.0467C259.769 11.9557 259.75 11.8581 259.75 11.7595V5.50953H258.25C258.102 5.50988 257.956 5.46611 257.833 5.38377C257.709 5.30143 257.613 5.18424 257.556 5.04707C257.499 4.90991 257.485 4.75897 257.514 4.61341C257.543 4.46784 257.615 4.33423 257.72 4.22953C257.789 4.15942 257.872 4.10384 257.963 4.06607C258.054 4.02829 258.151 4.00907 258.25 4.00953Z" fill="#CCCCCC"/>
<path d="M196 0H60C26.8629 0 0 26.8629 0 60V196C0 229.137 26.8629 256 60 256H196C229.137 256 256 229.137 256 196V60C256 26.8629 229.137 0 196 0Z" fill="#E14E1D"/>
<path d="M48 38L56.61 134.593H167.32L163.605 176.023L127.959 185.661L92.38 176.037L90.001 149.435H57.94L62.525 200.716L127.952 218.888L193.462 200.716L202.245 102.655H85.824L82.901 69.945H205.139L208 38H48Z" fill="white"/>
<path d="M128 38H48L56.61 134.593H128V102.655H85.824L82.901 69.945H128V38ZM128 185.647L127.959 185.661L92.38 176.037L90.001 149.435H57.94L62.525 200.716L127.952 218.888L128.001 218.874L128 185.647Z" fill="#EBEBEB"/>
</svg>
