<svg width="322" height="256" viewBox="0 0 322 256" fill="none" xmlns="http://www.w3.org/2000/svg">
<path d="M66.7479 0C48.4114 0 34.8427 16.0493 35.4502 33.4543C36.034 50.1752 35.2758 71.8332 29.8239 89.4943C24.3557 107.207 15.1065 118.427 0 119.868V136.132C15.1065 137.573 24.3557 148.793 29.8239 166.507C35.2758 184.168 36.034 205.824 35.4502 222.546C34.8427 239.948 48.4114 256 66.7504 256H254.638C272.976 256 286.541 239.951 285.933 222.546C285.351 205.825 286.108 184.168 291.559 166.507C297.031 148.794 306.255 137.572 321.362 136.132V119.868C306.255 118.427 297.031 107.207 291.561 89.4943C286.108 71.8357 285.351 50.1764 285.933 33.4543C286.541 16.0518 272.976 0 254.638 0H66.7454H66.7479ZM217.873 157.584C217.873 181.551 199.998 196.085 170.332 196.085H119.83C118.386 196.084 117.001 195.51 115.98 194.489C114.959 193.467 114.385 192.082 114.385 190.638V65.362C114.385 63.9173 114.959 62.5318 115.98 61.5101C117.001 60.4884 118.387 59.9143 119.832 59.9139H170.043C194.779 59.9139 211.013 73.3145 211.013 93.8867C211.013 108.327 200.092 121.254 186.179 123.517V124.272C205.121 126.349 217.873 139.466 217.873 157.584ZM164.824 77.1809H136.03V117.853H160.283C179.03 117.853 189.369 110.304 189.369 96.8091C189.369 84.1642 180.477 77.1809 164.824 77.1809ZM136.032 133.992V178.813H165.886C185.403 178.813 195.745 170.981 195.745 156.261C195.745 141.539 185.116 133.989 164.63 133.989H136.032V133.992Z" fill="#7E13F8"/>
</svg>
