<svg width="256" height="256" viewBox="0 0 256 256" fill="none" xmlns="http://www.w3.org/2000/svg">
<g clip-path="url(#clip0_682_143)">
<path d="M189.992 240.04C189.04 240.544 189.12 240.704 190.032 240.24C190.314 240.127 190.572 239.961 190.792 239.752C190.792 239.584 190.792 239.584 189.992 240.04ZM191.912 239C191.456 239.376 191.456 239.376 192 239.128C192.198 239.028 192.381 238.902 192.544 238.752C192.544 238.536 192.416 238.584 191.912 239ZM193.16 238.248C192.704 238.624 192.704 238.624 193.248 238.376C193.446 238.274 193.629 238.145 193.792 237.992C193.792 237.792 193.664 237.832 193.16 238.248ZM194.424 237.504C193.968 237.88 193.968 237.88 194.496 237.624C194.792 237.464 195.04 237.296 195.04 237.248C195.04 237.048 194.912 237.088 194.424 237.504ZM196.128 236.376C195.256 236.96 194.952 237.336 195.752 236.92C196.288 236.592 197.2 235.872 197.04 235.872C196.696 236 196.408 236.216 196.12 236.376H196.128ZM119.624 0.0880971C119.04 0.128097 117.288 0.288097 115.752 0.416097C79.368 3.7121 45.328 23.2961 23.752 53.4641C11.8207 70.0058 4.06945 89.189 1.16 109.376C0.128 116.416 0 118.496 0 128.04C0 137.576 0.128 139.624 1.16 146.664C8.128 194.752 42.336 235.12 88.704 250.08C97.048 252.744 105.792 254.584 115.752 255.712C119.624 256.128 136.368 256.128 140.24 255.712C157.456 253.792 171.992 249.544 186.376 242.208C188.584 241.088 189 240.792 188.704 240.544C181.687 231.269 174.73 221.948 167.832 212.584L147.376 184.96L121.752 147C113.229 134.29 104.618 121.639 95.92 109.048C95.832 109.048 95.72 125.92 95.672 146.496C95.584 182.536 95.584 184 95.128 184.832C94.6919 185.838 93.9081 186.653 92.92 187.128C92.128 187.504 91.416 187.584 87.632 187.584H83.304L82.176 186.88C81.4707 186.425 80.897 185.794 80.512 185.048L79.968 183.92L80.008 133.752L80.096 83.5841L80.888 82.5841C81.4004 81.9759 82.0217 81.4686 82.72 81.0881C83.768 80.5841 84.184 80.5041 88.512 80.5041C93.592 80.5041 94.432 80.7041 95.768 82.1681C106.148 97.6071 116.439 113.106 126.64 128.664C143.272 153.88 165.976 188.288 177.136 205.168L197.432 235.88L198.432 235.216C208.183 228.73 217.021 220.968 224.712 212.136C240.834 193.68 251.297 170.968 254.848 146.72C255.88 139.68 256.008 137.592 256.008 128.056C256.008 118.52 255.88 116.472 254.848 109.432C247.88 61.3441 213.672 20.9761 167.304 6.0081C158.638 3.26435 149.719 1.39634 140.68 0.432097C138.256 0.184097 121.712 -0.111903 119.632 0.104097L119.624 0.0880971ZM172 77.5041C172.596 77.7953 173.127 78.203 173.563 78.7032C173.999 79.2034 174.329 79.7858 174.536 80.4161C174.752 81.0881 174.792 95.0001 174.752 126.336L174.664 171.328L166.752 159.168L158.792 147V114.336C158.792 93.1601 158.88 81.2881 158.992 80.7041C159.384 79.365 160.282 78.2314 161.496 77.5441C162.488 77.0401 162.872 77.0001 166.832 77.0001C170.536 77.0001 171.168 77.0401 172 77.5041Z" fill="#111111"/>
</g>
<defs>
<clipPath id="clip0_682_143">
<rect width="256" height="256" fill="white"/>
</clipPath>
</defs>
</svg>
