<svg width="256" height="256" viewBox="0 0 256 256" fill="none" xmlns="http://www.w3.org/2000/svg">
<path d="M68.4959 122.048C87.6018 128.756 107.755 131.988 128 131.592C148.246 131.985 168.399 128.75 187.504 122.04C202.416 116.224 207.704 109.76 207.704 106.04V77.5996C202.489 81.0884 196.896 83.9761 191.032 86.2076C170.819 93.444 149.466 96.9726 128 96.6236C106.536 96.9603 85.1861 93.4376 64.9679 86.2236C59.1002 83.9934 53.5066 81.0999 48.2959 77.5996V106C48.2959 109.792 53.5999 116.224 68.4959 122.048ZM68.4959 175.688C75.2446 178.262 82.2041 180.245 89.2959 181.616C102.049 184.078 115.011 185.291 128 185.24C140.988 185.294 153.951 184.083 166.704 181.624C173.796 180.253 180.755 178.27 187.504 175.696C202.416 169.88 207.704 163.416 207.704 159.696V132.576C203.395 135.169 198.865 137.378 194.168 139.176C172.934 146.692 150.521 150.331 128 149.92C105.476 150.318 83.0637 146.666 61.8319 139.136C57.1396 137.326 52.611 135.118 48.2959 132.536V159.68C48.2959 163.408 53.5999 169.848 68.4959 175.688ZM128 240C172 240 207.704 226.048 207.704 208.848V186.152C203.783 188.515 199.676 190.554 195.424 192.248L194.168 192.752C172.938 200.29 150.525 203.951 128 203.56C105.473 203.968 83.0578 200.307 61.8319 192.752L60.5759 192.248C56.3233 190.554 52.2163 188.515 48.2959 186.152V208.848C48.2959 226.048 83.9999 240 128 240Z" fill="#FFDA44"/>
<path d="M128 78.304C172.019 78.304 207.704 64.3568 207.704 47.152C207.704 29.9472 172.019 16 128 16C83.9806 16 48.2959 29.9472 48.2959 47.152C48.2959 64.3568 83.9806 78.304 128 78.304Z" fill="#FFDA44"/>
</svg>
