<svg width="133" height="80" viewBox="0 0 133 80" fill="none" xmlns="http://www.w3.org/2000/svg">
<path d="M66.2334 0C48.5711 0 37.5322 8.83111 33.1167 26.4933C39.74 17.6622 47.4672 14.3506 56.2984 16.5583C61.337 17.818 64.9384 21.4733 68.9246 25.5197C75.4184 32.1112 82.9342 39.74 99.35 39.74C117.012 39.74 128.051 30.9089 132.467 13.2467C125.843 22.0778 118.116 25.3895 109.285 23.1817C104.246 21.922 100.645 18.2667 96.6587 14.2203C90.1649 7.62886 82.6492 0 66.2334 0ZM33.1167 39.74C15.4544 39.74 4.41556 48.5711 0 66.2334C6.62334 57.4022 14.3506 54.0906 23.1817 56.2984C28.2203 57.558 31.8217 61.2134 35.808 65.2597C42.3018 71.8512 49.8175 79.48 66.2334 79.48C83.8956 79.48 94.9345 70.6489 99.35 52.9867C92.7267 61.8178 84.9995 65.1295 76.1684 62.9217C71.1297 61.662 67.5283 58.0067 63.5421 53.9603C57.0483 47.3689 49.5325 39.74 33.1167 39.74Z" fill="url(#paint0_linear_207_1169)"/>
<defs>
<linearGradient id="paint0_linear_207_1169" x1="-941.986" y1="3916.78" x2="31516.1" y2="15174.8" gradientUnits="userSpaceOnUse">
<stop stop-color="#2298BD"/>
<stop offset="1" stop-color="#0ED7B5"/>
</linearGradient>
</defs>
</svg>
