<svg width="256" height="256" viewBox="0 0 256 256" fill="none" xmlns="http://www.w3.org/2000/svg">
<rect width="256" height="256" rx="50" fill="#2684FF"/>
<path d="M208 156C207.957 161.062 206.861 166.059 204.783 170.674C202.704 175.288 199.687 179.42 195.925 182.806C192.163 186.192 187.737 188.758 182.93 190.341C178.122 191.924 173.038 192.489 168 192C162.962 192.489 157.878 191.924 153.07 190.341C148.263 188.758 143.837 186.192 140.075 182.806C136.313 179.42 133.296 175.288 131.217 170.674C129.139 166.059 128.043 161.062 128 156C128 153.879 128.843 151.844 130.343 150.344C131.843 148.843 133.878 148 136 148C138.122 148 140.157 148.843 141.657 150.344C143.157 151.844 144 153.879 144 156C144 170.784 156.928 176 168 176C179.072 176 192 170.784 192 156C192 146.272 181.872 141.76 165.184 135.504C148.496 129.248 128 121.6 128 100C128.043 94.9391 129.139 89.9422 131.217 85.3273C133.296 80.7124 136.313 76.5807 140.075 73.1947C143.837 69.8088 148.263 67.2428 153.07 65.6599C157.878 64.077 162.962 63.5119 168 64.0004C173.038 63.5119 178.122 64.077 182.93 65.6599C187.737 67.2428 192.163 69.8088 195.925 73.1947C199.687 76.5807 202.704 80.7124 204.783 85.3273C206.861 89.9422 207.957 94.9391 208 100C208 102.122 207.157 104.157 205.657 105.657C204.157 107.158 202.122 108 200 108C197.878 108 195.843 107.158 194.343 105.657C192.843 104.157 192 102.122 192 100C192 85.2484 179.072 80.0004 168 80.0004C156.928 80.0004 144 85.2484 144 100C144 109.744 154.128 114.24 170.816 120.512C187.504 126.768 208 134.4 208 156ZM108 64.0004H36C33.8783 64.0004 31.8434 64.8433 30.3431 66.3436C28.8429 67.8439 28 69.8787 28 72.0004C28 74.1222 28.8429 76.157 30.3431 77.6573C31.8434 79.1576 33.8783 80.0004 36 80.0004H64V184C64 186.122 64.8429 188.157 66.3431 189.657C67.8434 191.158 69.8783 192 72 192C74.1217 192 76.1566 191.158 77.6569 189.657C79.1571 188.157 80 186.122 80 184V80.0004H108C110.122 80.0004 112.157 79.1576 113.657 77.6573C115.157 76.157 116 74.1222 116 72.0004C116 69.8787 115.157 67.8439 113.657 66.3436C112.157 64.8433 110.122 64.0004 108 64.0004Z" fill="#EEEEEE"/>
</svg>
