<svg width="512" height="512" viewBox="0 0 512 512" fill="none" xmlns="http://www.w3.org/2000/svg">
<g clip-path="url(#clip0_4014_10)">
<mask id="mask0_4014_10" style="mask-type:luminance" maskUnits="userSpaceOnUse" x="0" y="0" width="512" height="512">
<path d="M256 512C397.385 512 512 397.385 512 256C512 114.615 397.385 0 256 0C114.615 0 0 114.615 0 256C0 397.385 114.615 512 256 512Z" fill="white"/>
</mask>
<g mask="url(#mask0_4014_10)">
<path d="M256 0H512V64L480 96L512 128V192L480 224L512 256V320L480 352L512 384V448L256 480L0 448V384L32 352L0 320V256L256 0Z" fill="#EEEEEE"/>
<path d="M224 64H512V128H224V64ZM224 192H512V256H256L224 192ZM0 320H512V384H0V320ZM0 448H512V512H0V448Z" fill="#D80027"/>
<path d="M0 0H256V256H0V0Z" fill="#0052B4"/>
<path d="M187 243L244 202H174L231 243L209 176L187 243ZM106 243L163 202H93L150 243L128 176L106 243ZM25 243L82 202H12L69 243L47 176L25 243ZM187 162L244 121H174L231 162L209 95L187 162ZM106 162L163 121H93L150 162L128 95L106 162ZM25 162L82 121H12L69 162L47 95L25 162ZM187 80L244 39H174L231 80L209 13L187 80ZM106 80L163 39H93L150 80L128 13L106 80ZM25 80L82 39H12L69 80L47 13L25 80Z" fill="#EEEEEE"/>
</g>
</g>
<defs>
<clipPath id="clip0_4014_10">
<rect width="512" height="512" fill="white"/>
</clipPath>
</defs>
</svg>
