<svg width="133" height="134" viewBox="0 0 133 134" fill="none" xmlns="http://www.w3.org/2000/svg">
<path d="M0.00488281 133.385L9.36514 99.2325C3.60985 89.2397 0.542465 77.8873 0.574088 66.2818C0.574088 29.916 30.1727 0.348938 66.5386 0.348938C84.1839 0.348938 100.754 7.21102 113.182 19.6703C125.641 32.1295 132.503 48.6997 132.471 66.3134C132.471 102.679 102.873 132.246 66.507 132.246H66.4753C55.4391 132.246 44.5926 129.464 34.9477 124.214L0.00488281 133.385ZM36.5921 112.261L38.5843 113.463C46.9959 118.459 56.6408 121.084 66.4753 121.115H66.507C96.7064 121.115 121.309 96.5445 121.309 66.3134C121.309 51.6722 115.617 37.9165 105.276 27.5443C94.9356 17.1721 81.1482 11.4801 66.507 11.4801C36.2759 11.4801 11.6736 36.0507 11.6736 66.2818C11.6736 76.6224 14.5512 86.7099 20.0535 95.4378L21.3501 97.5248L15.8161 117.732L36.5921 112.261Z" fill="black" fill-opacity="0.24"/>
<path d="M2.99731 129.859L11.9291 97.2867C6.43261 87.7615 3.52822 76.9247 3.52822 65.8693C3.52822 31.2041 31.7601 3.00348 66.3941 3.00348C83.227 3.00348 98.9981 9.56177 110.866 21.4291C122.733 33.2965 129.26 49.0989 129.26 65.9006C129.26 100.566 101.028 128.766 66.3941 128.766H66.3629C55.8384 128.766 45.5013 126.112 36.3197 121.115L2.99731 129.859Z" fill="url(#paint0_linear_210_1227)"/>
<path d="M0.717285 132.139L9.96135 98.411C4.2775 88.5423 1.24819 77.3308 1.27942 65.8694C1.27942 29.9549 30.5106 0.754944 66.4251 0.754944C83.8514 0.754944 100.216 7.53184 112.489 19.8364C124.794 32.141 131.571 48.5055 131.539 65.9006C131.539 101.815 102.308 131.015 66.3938 131.015H66.3626C55.4634 131.015 44.7515 128.267 35.2264 123.083L0.717285 132.139ZM36.8503 111.278L38.8178 112.464C47.125 117.399 56.6501 119.991 66.3626 120.022H66.3938C96.2184 120.022 120.515 95.7564 120.515 65.9006C120.515 51.4411 114.894 37.8561 104.682 27.6127C94.4696 17.3693 80.8533 11.7479 66.3938 11.7479C36.538 11.7479 12.2411 36.0135 12.2411 65.8694C12.2411 76.0816 15.0831 86.0439 20.5171 94.6634L21.7975 96.7245L16.3323 116.68L36.8503 111.278Z" fill="white"/>
<path d="M50.1232 38.6056C48.9053 35.8886 47.6248 35.8261 46.4693 35.7949C45.5324 35.7637 44.4394 35.7637 43.3463 35.7637C42.2533 35.7637 40.5044 36.1697 39.0054 37.7936C37.5063 39.4176 33.3215 43.3525 33.3215 51.3786C33.3215 59.3735 39.1615 67.1185 39.9735 68.2116C40.7855 69.3046 51.2475 86.2625 67.7682 92.7895C81.5093 98.2235 84.32 97.1305 87.2869 96.8494C90.285 96.5684 96.9057 92.9145 98.2798 89.1044C99.6227 85.2944 99.6227 82.0464 99.2167 81.3594C98.8107 80.6723 97.7177 80.2663 96.0937 79.4544C94.4698 78.6424 86.4749 74.7074 84.9759 74.1453C83.4768 73.5831 82.3838 73.3333 81.322 74.9572C80.2289 76.5812 77.1059 80.2351 76.169 81.3282C75.2321 82.4212 74.264 82.5461 72.64 81.7341C71.0161 80.9222 65.7694 79.2045 59.5547 73.6456C54.714 69.3359 51.4349 63.9955 50.498 62.3716C49.5611 60.7476 50.4043 59.8732 51.2163 59.0612C51.9346 58.3429 52.8402 57.1562 53.6522 56.2193C54.4642 55.2824 54.7453 54.5953 55.2762 53.5023C55.8071 52.4092 55.5573 51.4723 55.1513 50.6604C54.7453 49.8484 51.5598 41.8223 50.1232 38.6056Z" fill="white"/>
<defs>
<linearGradient id="paint0_linear_210_1227" x1="16164.1" y1="32602.7" x2="16164.1" y2="1.18076" gradientUnits="userSpaceOnUse">
<stop stop-color="#20B038"/>
<stop offset="1" stop-color="#60D66A"/>
</linearGradient>
</defs>
</svg>
